<?xml version="1.0" encoding="utf-8"?>
<!DOCTYPE svg PUBLIC "-//W3C//DTD SVG 20010904//EN" "http://www.w3.org/TR/2001/REC-SVG-20010904/DTD/svg10.dtd">
<svg version="1.0" xmlns="http://www.w3.org/2000/svg" width="186px" height="186px" viewBox="0 0 186 186" preserveAspectRatio="xMidYMid meet">
 <g fill="#0b0b0b">
  <path d="M59.55 172.65 c-6.80 -3.50 -8.50 -10.85 -3.60 -15.70 5.95 -5.95 15.45 -1.20 12.40 6.20 -0.85 1.95 -3.40 3.85 -5.20 3.85 -2.90 0 -5.15 -2.40 -5.15 -5.50 0 -3 4.55 -5.75 6.40 -3.90 0.90 0.90 0.75 2.30 -0.35 2.85 -0.90 0.50 -1.55 0.30 -1.55 -0.55 0 -0.20 0.15 -0.35 0.40 -0.25 0.20 0.05 0.40 -0.10 0.50 -0.40 0.20 -0.75 -1.55 -0.85 -2.50 -0.15 -1.45 1.10 -1.65 3.45 -0.40 5.05 1.85 2.30 5.05 1.60 6.30 -1.40 1 -2.45 0.90 -3.45 -0.60 -5.20 -1.15 -1.35 -1.60 -1.55 -3.85 -1.55 -3.10 0.05 -4.40 0.70 -6.10 3 -1.85 2.55 -1.75 6.15 0.25 8.95 1.95 2.65 4.05 3.90 7.25 4.30 3.35 0.45 6.30 -0.40 8.60 -2.40 2.20 -1.95 3.15 -4.10 3.15 -7.25 0 -4.45 -3.25 -12.20 -8.15 -19.20 -3.05 -4.45 -6.90 -11.15 -10.10 -17.65 -1.50 -3 -1.50 -3 -5 -3.35 -1.90 -0.20 -4.70 -0.85 -6.15 -1.45 -2.90 -1.15 -1.95 -1.20 -22.10 0.55 -12.80 1.10 -15.15 1.15 -14.90 0.45 0.15 -0.50 2.15 -0.85 7.20 -1.30 3.80 -0.30 9.75 -0.85 13.20 -1.10 3.45 -0.30 7.45 -0.55 8.90 -0.55 2 0 2.60 -0.20 2.60 -0.75 0 -0.40 -0.25 -0.75 -0.50 -0.75 -0.60 0 -4.90 -5.75 -5.55 -7.35 -0.25 -0.65 -0.70 -1.15 -1.05 -1.15 -0.35 0 -5.95 0.45 -12.40 0.95 -6.70 0.55 -11.95 0.75 -12.20 0.50 -0.85 -0.80 1.05 -1 18.45 -2.25 6.15 -0.40 6.30 -0.45 5.75 -2.10 -0.25 -0.75 -0.70 -2.60 -1 -4.15 -0.55 -2.80 -0.55 -2.80 -3.15 -3.15 -1.45 -0.15 -4.55 -0.30 -6.90 -0.30 -2.35 0 -6.35 -0.15 -8.85 -0.30 -4.60 -0.35 -4.60 -0.35 -4.60 -7 0 -3.65 0.15 -6.70 0.40 -6.80 0.20 -0.10 6.15 0 13.25 0.25 12.90 0.45 12.90 0.45 15.60 -2.45 1.85 -2 2.70 -3.40 2.75 -4.30 0 -1.30 -0.10 -1.30 -3.60 -1.60 -2 -0.15 -9.15 -0.45 -15.85 -0.65 -9.80 -0.30 -12.25 -0.55 -12.45 -1.10 -0.20 -0.60 1.65 -0.65 12.20 -0.35 6.85 0.20 14.05 0.45 16 0.65 3.55 0.25 3.55 0.25 4.70 -2.65 0.65 -1.65 1.95 -4.15 2.90 -5.60 1.55 -2.35 1.75 -3.05 1.80 -6.25 0.10 -2.85 0.40 -4.15 1.50 -6.35 3.20 -6.25 7 -9.45 11.40 -9.70 1.50 -0.05 3 -0.30 3.30 -0.50 1.20 -0.75 2.10 0.75 2.10 3.45 0 3.40 -1.05 4 -3.15 1.75 -0.75 -0.80 -1.75 -1.50 -2.15 -1.50 -2.40 0 -6.55 4 -8.50 8.20 -3.75 8 1.55 13.20 8.75 8.60 2.65 -1.75 3.75 -1.85 4.25 -0.50 0.40 1.10 -0.05 1.85 -2.10 3.25 -4.90 3.40 -10.70 3.30 -13.50 -0.30 -0.55 -0.70 -1.10 -1.25 -1.25 -1.25 -0.70 0 -4.30 7.55 -4.35 9.15 0 0.85 4.90 0.30 7.45 -0.90 1.50 -0.70 4.75 -1.85 7.25 -2.55 14.05 -3.95 20.75 -9.95 27.40 -24.45 3.25 -7.05 4.05 -10.45 4.05 -16.75 0 -5.75 -0.70 -8.45 -2.95 -11.35 -1.45 -1.95 -1.25 -2.80 0.35 -1.35 4.10 3.70 5.65 14.15 3.40 22.85 -1.15 4.65 -5.20 13.10 -8.05 16.85 -1.05 1.40 -1.90 2.65 -1.90 2.75 0 0.15 0.65 0.25 1.40 0.25 2.85 0 4.35 3.70 2.90 7.15 -1.70 4.15 -7.30 3.20 -7.30 -1.25 0 -1.70 -0.50 -1.75 -2.35 -0.20 -2.40 2 -7.10 4.10 -14.50 6.55 -3.95 1.30 -7.25 2.55 -7.45 2.80 -0.15 0.25 1.40 0.45 3.65 0.45 2.15 0 10 0.25 17.40 0.50 7.45 0.25 20.35 0.70 28.75 1 8.40 0.30 21.55 0.75 29.25 1 7.70 0.25 21.20 0.70 30 1 20.60 0.65 24.25 0.90 24.25 1.75 0 0.50 -1 0.60 -4.10 0.45 -2.30 -0.10 -11.35 -0.40 -20.15 -0.70 -17.15 -0.55 -36.50 -1.20 -59 -2 -7.70 -0.25 -21.30 -0.70 -30.25 -1 -8.95 -0.30 -17.70 -0.60 -19.45 -0.70 -3.60 -0.20 -6.90 0.75 -8.85 2.55 -0.90 0.80 -1.20 1.65 -1.20 3.15 0 1.10 0.15 2 0.30 2 0.15 0 1.20 -0.75 2.30 -1.70 1.05 -0.95 3.30 -2.20 4.95 -2.80 2.65 -1 3.60 -1.10 8.20 -0.85 6.60 0.35 11.15 2.05 17.40 6.50 1.50 1.05 -0.75 0.95 91.60 4.10 15.50 0.55 18.25 0.75 18.25 1.60 0 0.65 -0.90 0.70 -6.85 0.45 -3.80 -0.20 -13.40 -0.55 -21.40 -0.80 -19.90 -0.65 -42.40 -1.45 -58.25 -2 -7.30 -0.25 -14.65 -0.50 -16.40 -0.50 -3.15 0 -3.15 0 -1.70 1.90 1.60 2.05 3.60 6.50 3.60 8 0 0.90 0.50 1.05 6.90 1.40 3.75 0.20 14.15 0.40 23.10 0.40 14.85 0.05 18.45 -0.15 41.75 -2.10 14.05 -1.15 26.35 -2.20 27.40 -2.30 1.85 -0.20 1.85 -0.20 1.85 4.25 0 4.50 0 4.50 -3.60 4.20 -2 -0.15 -10.60 -0.50 -19.15 -0.75 -8.50 -0.30 -21.45 -0.75 -28.70 -1 -12.20 -0.50 -14.30 -0.45 -29 0.75 -23.35 1.85 -20.80 1.30 -22.35 4.70 -0.70 1.60 -2.25 3.90 -3.50 5.10 -2.20 2.15 -2.75 3.10 -1.55 2.70 0.30 -0.10 3.85 -0.45 7.85 -0.75 12.40 -0.95 20.05 -1.50 26 -2 3.15 -0.25 8.80 -0.70 12.50 -1 3.70 -0.30 9.35 -0.75 12.50 -1 3.15 -0.25 8.80 -0.70 12.50 -1 3.70 -0.30 9.35 -0.75 12.50 -1 3.15 -0.25 8.80 -0.70 12.50 -1 3.70 -0.25 7.80 -0.65 9.15 -0.80 1.90 -0.25 2.35 -0.15 2.35 0.45 0 0.85 -0.90 1 -12.25 1.85 -3.85 0.30 -8.25 0.65 -9.75 0.75 -1.50 0.15 -5.65 0.50 -9.25 0.75 -3.55 0.25 -10.65 0.85 -15.75 1.25 -5.10 0.45 -21.50 1.75 -36.50 2.95 -27.25 2.20 -27.25 2.20 -31.25 4.25 -2.55 1.30 -5.50 2.35 -8.10 2.90 -3.05 0.55 -4.15 1 -4.15 1.55 0 1.30 6.25 12.75 9.75 17.85 3.75 5.50 5.55 9 7.50 14.25 2.45 6.85 1.05 12.95 -3.80 16.30 -1.85 1.25 -2.65 1.45 -6.15 1.60 -3.65 0.15 -4.35 0 -6.75 -1.25z m-4.55 -51.85 c0 -0.35 -0.30 -0.90 -0.60 -1.15 -0.75 -0.55 -7.40 -0.25 -7.40 0.35 0 0.45 4 1.35 6.40 1.45 1.05 0.05 1.60 -0.20 1.60 -0.65z m10.40 -5.55 c4.10 -1.85 7.25 -4.10 9.10 -6.55 2.10 -2.80 1.95 -3.25 -0.85 -2.90 -1.85 0.25 -2.85 0.75 -4.40 2.25 -3.15 3 -6.20 4.10 -11.35 4.15 -2.45 0.05 -4.40 0.10 -4.40 0.20 0 0.30 1.65 3.40 2.15 4.05 0.90 1.10 6.10 0.45 9.75 -1.20z m-13.60 -1.15 c-0.70 -1.35 -1.85 -2.85 -2.65 -3.35 -0.75 -0.50 -1.85 -1.35 -2.35 -1.90 -0.80 -0.80 -1.35 -0.90 -3.20 -0.65 -1.25 0.15 -2.35 0.40 -2.50 0.50 -0.10 0.15 0.20 0.90 0.70 1.75 1.60 2.70 7 5.90 10.10 6 1.10 0.05 1.10 0.05 -0.10 -2.35z m20.50 1.95 c3.55 -0.70 9.05 -6.10 10 -9.85 0.35 -1.30 0.30 -1.35 -1.30 -1.05 -0.90 0.20 -1.95 0.35 -2.30 0.35 -0.35 0 -1.10 0.85 -1.65 1.90 -1.40 2.70 -4.80 5.95 -8.05 7.60 -2.75 1.45 -2.75 1.45 -0.75 1.45 1.10 0 2.95 -0.15 4.05 -0.40z m-8.90 -6.15 c1.80 -0.30 3.20 -1 4.25 -1.95 1.60 -1.50 1.60 -1.50 -3.15 -1.25 -7.95 0.40 -13.50 0.95 -13.50 1.25 0 0.20 0.35 0.80 0.75 1.40 1.10 1.55 5.35 1.75 11.65 0.55z m-24.50 -3.20 c0.10 -0.05 -0.05 -0.55 -0.35 -1.10 -0.30 -0.55 -0.70 -2.25 -0.85 -3.80 -0.35 -2.80 -0.35 -2.80 -2 -2.80 -1.55 0 -1.70 0.10 -1.70 1.55 0 1.80 0.95 5.40 1.65 6.30 0.40 0.55 2.60 0.45 3.25 -0.15z m9.05 -0.55 c0 -0.25 -0.55 -1.50 -1.25 -2.90 -1.20 -2.50 -1.20 -2.50 -0.90 -0.50 0.35 2.25 1 3.75 1.70 3.75 0.30 0 0.50 -0.15 0.45 -0.35z m4.35 -1.40 c-0.75 -0.60 -1.65 -1.95 -2.05 -3.05 -0.75 -2.20 -2.10 -3.10 -1.55 -1.05 0.15 0.70 0.75 2.25 1.25 3.50 0.85 2 1.10 2.20 2.35 1.95 1.40 -0.25 1.40 -0.25 0 -1.35z m17.30 -0.20 c0.15 -0.15 0.40 -1.20 0.50 -2.30 0.15 -2 0.15 -2 -1.85 -2.10 -1.95 -0.15 -2.05 -0.05 -3.55 2.60 -1.60 2.70 -1.60 2.70 1.50 2.40 1.65 -0.15 3.20 -0.40 3.40 -0.60z m-9.50 -0.05 c1.85 -0.55 3.90 -2.55 3.90 -3.80 0 -1 -0.90 -0.85 -2.35 0.30 -1.75 1.35 -3.80 1.25 -5.45 -0.25 -1.75 -1.65 -4.55 -1.60 -4.30 0 0.25 1.35 1.55 2.75 3.35 3.55 1.85 0.80 2.50 0.85 4.85 0.20z m23.15 -2.25 c0 -1.45 -0.10 -1.50 -2.35 -1.65 -2.40 -0.15 -2.40 -0.15 -2.40 1.65 0 1.80 0 1.80 2.40 1.65 2.25 -0.15 2.35 -0.20 2.35 -1.65z m-18.75 -4.70 c0 -0.50 -0.45 -1.50 -1.05 -2.25 -0.75 -1 -1.45 -1.30 -2.85 -1.30 -2.10 0 -2.55 0.25 -3.75 2 -1.25 1.80 -1.05 2.50 0.60 2.50 1.20 0 1.40 -0.15 1.20 -1.20 -0.55 -2.85 3.25 -2.40 4.40 0.55 0.50 1.30 1.45 1.15 1.45 -0.30z m12 0.70 c0 -2 -4.40 -8.40 -6.50 -9.50 -0.95 -0.50 -4.10 -0.80 -9.90 -1.05 -8.55 -0.35 -8.55 -0.35 -10.05 1.10 -1.80 1.80 -3.55 4.65 -3.55 5.80 0 1.75 1.15 3.40 2.35 3.40 0.85 0 1.15 -0.30 1.15 -1.10 0 -1.55 1.90 -4.50 3.95 -6.20 1.60 -1.35 2.05 -1.45 5.75 -1.45 3.30 0 4.50 0.25 6.55 1.25 2.55 1.30 4.55 3.65 5.05 5.95 0.55 2.45 0.65 2.55 2.95 2.55 1.70 0 2.25 -0.20 2.25 -0.75z m-14.50 -0.15 c0 -0.25 -0.45 -0.85 -1 -1.35 -1 -0.90 -1 -0.85 -1 0.40 0 1 0.25 1.35 1 1.35 0.55 0 1 -0.20 1 -0.40z m-24 -1.55 c0 -1.80 1.85 -7.90 2.50 -8.30 1.15 -0.70 0.35 -1.25 -1.75 -1.25 -1.70 0 -2.35 0.25 -2.75 1 -0.75 1.40 -2.15 8.45 -1.80 9.30 0.15 0.40 0.95 0.70 2.05 0.70 1.60 0 1.75 -0.10 1.75 -1.45z m6.50 0.65 c0 -1 -2 -6.75 -2.55 -7.40 -0.75 -0.85 -2.85 6.70 -2.15 7.75 0.15 0.25 1.25 0.45 2.50 0.45 1.70 0 2.20 -0.20 2.20 -0.80z m4.50 -8.95 c1 -0.65 -0.10 -1.25 -2.25 -1.25 -2.60 0 -2.90 0.35 -2.20 2.55 0.30 0.95 0.65 2 0.75 2.40 0.15 0.45 0.75 -0.05 1.70 -1.35 0.80 -1.10 1.70 -2.15 2 -2.35z m23.75 -3.35 c-2.90 -1.80 -7.70 -3.55 -12.15 -4.45 -5.50 -1.05 -12.25 0.90 -15.15 4.40 -0.65 0.75 -0.15 0.75 5.55 0.40 8.65 -0.55 11.30 -0.45 14.50 0.40 1.50 0.45 4.35 0.80 6.25 0.80 3.50 0.05 3.50 0.05 1 -1.55z m-29 -7.90 c0.15 -0.25 0.05 -0.50 -0.20 -0.50 -0.30 0 -0.55 0.25 -0.55 0.50 0 0.30 0.10 0.50 0.20 0.50 0.15 0 0.40 -0.20 0.55 -0.50z m38.35 -9.85 c1.30 -1.15 1.25 -4.45 -0.10 -5.15 -0.85 -0.45 -1.25 -0.30 -2.25 0.70 -1.45 1.45 -1.60 3.10 -0.40 4.40 1 1.10 1.55 1.15 2.75 0.05z"/>
  <path d="M7.25 96.25 c0 -14.30 0.05 -20.10 0.10 -12.85 0.10 7.25 0.10 18.95 0 26 -0.05 7.05 -0.10 1.15 -0.10 -13.15z"/>
  <path d="M93.35 69.70 c-0.20 -0.20 -0.35 -2 -0.35 -4.05 0 -4.05 -0.70 -5 -2.45 -3.45 -1 0.90 -2.05 4.35 -1.90 6.05 0.05 0.55 -0.25 1.05 -0.75 1.15 -0.80 0.15 -0.90 -0.35 -0.90 -4.85 0 -4.70 0.05 -5.05 1 -5.05 0.55 0 1 0.35 1 0.75 0 0.70 0.15 0.65 1.25 -0.05 1.45 -0.95 3.55 -0.60 3.95 0.70 0.50 1.85 0.55 8.75 0 8.95 -0.25 0.10 -0.65 0 -0.85 -0.15z"/>
  <path d="M97.65 69.45 c-1.20 -0.35 -1.65 -0.75 -1.65 -1.50 0 -0.90 0.20 -1 1.15 -0.70 2.55 0.80 3.40 0.85 4.10 0.25 1.05 -0.85 0.15 -1.85 -2.30 -2.50 -3.35 -0.90 -3.10 -3.75 0.55 -5.20 2.75 -1.10 3.80 -1 4.20 0.35 0.15 0.60 0.30 1.25 0.30 1.50 0 0.60 -1.90 0.40 -2.10 -0.25 -0.15 -0.45 -0.60 -0.45 -1.80 0.05 -0.90 0.35 -1.60 0.85 -1.60 1.05 0 0.20 0.90 0.60 2 0.95 2.15 0.65 3 1.70 3 3.80 0 1 -0.40 1.45 -1.75 2.05 -1.95 0.80 -1.90 0.80 -4.10 0.15z"/>
  <path d="M116.35 69.70 c-0.20 -0.20 -0.35 -2.35 -0.35 -4.80 0 -3.70 0.15 -4.50 0.85 -4.75 0.45 -0.20 0.95 -0.05 1.05 0.25 0.10 0.40 0.55 0.40 1.60 -0.15 0.80 -0.40 1.80 -0.75 2.25 -0.75 0.85 0 1.95 2.30 1.55 3.35 -0.40 1.05 -1.80 0.75 -1.80 -0.35 0 -1.20 -0.85 -1.25 -2.25 -0.20 -0.75 0.55 -1.05 1.50 -1.25 4.05 -0.25 3.05 -0.80 4.20 -1.65 3.35z"/>
  <path d="M135.65 69.50 c-1.45 -0.60 -2.15 -2 -2.15 -4.50 0 -2.90 2.10 -5 4.90 -5 2.45 0 3.15 0.80 2.75 3.15 -0.15 1 0 2.85 0.35 4.10 0.70 2.45 0.45 3.25 -0.70 2.30 -0.50 -0.40 -1.05 -0.45 -2 -0.05 -1.60 0.60 -1.70 0.60 -3.15 0z m3.75 -4.85 c0.15 -2.75 0.05 -3.15 -0.75 -3.15 -2.45 0 -4.35 3.30 -3.15 5.50 0.45 0.80 0.95 1 2.15 0.90 1.60 -0.15 1.60 -0.15 1.75 -3.25z"/>
  <path d="M146.35 69.65 c-0.20 -0.15 -0.35 -2.10 -0.35 -4.25 0 -3.90 0 -3.90 -1.55 -3.90 -1.20 0 -1.50 -0.20 -1.35 -0.85 0.10 -0.55 0.70 -0.95 1.50 -1.05 1.10 -0.15 1.30 -0.40 1.25 -1.50 -0.15 -1.85 1.35 -1.85 1.55 0 0.15 1.05 0.45 1.35 1.50 1.50 0.80 0.10 1.40 0.50 1.50 1.05 0.15 0.65 -0.15 0.85 -1.30 0.85 -1.50 0 -1.50 0 -1.25 3.65 0.20 2.85 0.10 3.75 -0.45 4.25 -0.40 0.30 -0.90 0.45 -1.05 0.25z"/>
  <path d="M154.70 69.50 c-4.50 -1.80 -3 -9.50 1.80 -9.50 2.60 0 3.70 1.65 3.40 5.10 -0.35 3.50 -2.65 5.45 -5.20 4.40z m2.80 -2.50 c1.25 -1.25 1.30 -3.05 0.05 -4.55 -0.90 -1.10 -0.95 -1.10 -2.25 -0.30 -1 0.70 -1.30 1.25 -1.30 2.75 0 3 1.60 4 3.50 2.10z"/>
  <path d="M162.25 69.55 c-0.30 -0.55 -0.25 -6.35 0.15 -8.35 0.20 -1.20 1.35 -1.65 1.70 -0.70 0.10 0.35 0.80 0.20 1.85 -0.30 2.10 -1.05 3.30 -0.45 3.30 1.60 0 0.95 -0.30 1.50 -0.85 1.60 -0.65 0.10 -0.90 -0.15 -0.90 -0.85 0 -1.30 -0.50 -1.30 -2.15 -0.05 -1.10 0.90 -1.35 1.50 -1.45 4.10 -0.15 2.90 -0.85 4.15 -1.65 2.95z"/>
  <path d="M106.60 68.35 c-2.05 -2.15 -1 -7.50 1.60 -8.15 1.90 -0.45 4.40 0 5 0.95 0.80 1.25 -0.10 2.40 -3.10 3.85 -1.40 0.70 -2.55 1.50 -2.60 1.80 -0.05 1.35 3.65 1.65 5.35 0.45 1.55 -1.10 2.15 0.10 0.65 1.35 -1.70 1.35 -5.50 1.25 -6.90 -0.25z m2.90 -4.70 c2.25 -1 2.65 -2.15 0.75 -2.15 -1.25 0 -3.25 1.55 -3.25 2.50 0 0.65 0.15 0.65 2.50 -0.35z"/>
  <path d="M127.35 68.15 c-1.65 -3.30 -3 -7.70 -2.50 -8.20 0.70 -0.70 1.50 0.40 2.60 3.60 0.95 2.70 0.95 2.70 2 0.45 0.55 -1.25 1.05 -2.50 1.05 -2.80 0 -0.30 0.35 -0.85 0.75 -1.20 0.60 -0.50 0.80 -0.45 1.05 0.20 0.35 0.95 -2.80 8.90 -3.65 9.15 -0.35 0.15 -0.90 -0.40 -1.30 -1.20z"/>
  <path d="M171.50 65.30 c0 -4.15 0.30 -5.30 1.30 -5.30 0.55 0 0.70 1 0.70 4.50 0 4.15 -0.05 4.50 -1 4.50 -0.90 0 -1 -0.35 -1 -3.70z"/>
  <path d="M172.10 56.65 c0.10 -0.50 0.50 -0.90 0.90 -0.90 0.40 0 0.80 0.40 0.90 0.90 0.10 0.60 -0.15 0.85 -0.90 0.85 -0.75 0 -1 -0.25 -0.90 -0.85z"/>
 </g>
</svg>