<?xml version="1.0" encoding="utf-8"?>
<!-- Generator: Adobe Illustrator 25.2.0, SVG Export Plug-In . SVG Version: 6.00 Build 0)  -->
<svg version="1.1" id="Capa_1" xmlns="http://www.w3.org/2000/svg" xmlns:xlink="http://www.w3.org/1999/xlink" x="0px" y="0px"
	 viewBox="0 0 40 26" style="enable-background:new 0 0 40 26;" xml:space="preserve">
<style type="text/css">
	.st0{fill:#0D0E10;}
</style>
<g id="surface1">
	<path class="st0" d="M3.2,25.7c-0.1,0-0.1-0.2-0.1-0.3c0-0.2,0.8-1.6,6.8-12.5c1-1.9,2.4-4.3,3.1-5.5c0.6-1.1,1.2-2.1,1.2-2.2
		c0.1-0.1,0.7-0.1,2.4-0.1c2.2,0,2.3,0,2.4,0.2s0,0.3-0.3,0.9s-2,3.6-3.1,5.5c-0.2,0.4-0.5,1-0.7,1.2c-0.2,0.4-1.9,3.4-2.3,4.2
		c-1.2,2.2-1.7,3-2.4,4.3c-0.5,0.8-1,1.7-1.1,2c-0.8,1.4-1.2,2.1-1.3,2.2C7.7,25.8,3.4,25.8,3.2,25.7z M8.1,23.5
		c0.4-0.8,1.3-2.3,1.9-3.4c0.6-1.1,1.9-3.5,2.9-5.3s2.4-4.4,3.2-5.8c0.8-1.4,1.5-2.7,1.6-2.8l0.2-0.3h-3.1l-0.6,1.2
		c-0.3,0.6-1.1,2-1.7,3c-0.6,1-1.1,2-1.3,2.3c-0.7,1.3-3,5.4-3.7,6.7c-0.8,1.4-2.3,4.2-2.9,5.3L4.3,25h3.1L8.1,23.5z"/>
	<path class="st0" d="M33.1,25.6c-0.1-0.1-0.4-0.6-0.8-1.2c-0.3-0.6-0.9-1.6-1.3-2.3c-0.4-0.6-1.4-2.4-2.3-4c-0.9-1.5-1.8-3.1-2-3.4
		c-0.2-0.3-0.8-1.5-1.5-2.5c-2.8-4.9-3.2-5.5-3.9-6.7l-0.5-1h-2.9c-1.8,0-3,0-3.1-0.1c-0.2-0.1-0.2-0.6,0-0.8s1.3-1.8,1.6-2.4
		c0.1-0.2,0.3-0.4,0.4-0.5c0.1,0,2.3,0,4.9,0h4.7l1,1.5c0.8,1.2,1,1.6,1,1.8v0.3H27h-1.4L25.8,5c0.1,0.2,0.3,0.6,0.4,0.8
		c0.2,0.4,0.3,0.5,2.2,3.9c0.7,1.2,1.4,2.4,1.6,2.7s1.2,2.2,2.4,4.1c1.1,2,2.2,3.9,2.4,4.2c2.1,3.7,2.6,4.5,2.6,4.6
		s-0.1,0.2-0.2,0.3c-0.2,0.1-0.6,0.2-2.1,0.2C33.8,25.7,33.2,25.7,33.1,25.6z M36.2,24.8c0-0.1-0.3-0.5-0.6-1s-1.1-1.9-1.8-3.1
		s-1.6-2.7-1.9-3.3c-0.6-1.1-3.3-5.7-6.1-10.6c-1.3-2.3-1.5-2.8-1.3-2.9c0.1,0,0.7-0.1,1.4-0.1l1.3-0.1l-0.6-1l-0.6-1h-4.4h-4.4
		l-0.6,0.9c-0.3,0.5-0.6,0.9-0.6,1c0,0,1.2,0.1,2.7,0.1c2.7,0,2.7,0,2.8,0.2c0.1,0.1,0.4,0.7,0.7,1.2c0.3,0.5,1,1.7,1.5,2.7
		c0.5,0.9,1.4,2.5,2,3.4c0.5,0.9,1.2,2,1.4,2.4c0.2,0.4,0.7,1.1,1,1.7c0.3,0.5,0.8,1.3,1,1.7s0.6,1.1,0.9,1.6s1,1.6,1.5,2.5
		c0.5,0.9,1.2,2,1.5,2.6c0.3,0.5,0.6,1,0.7,1.1C33.6,24.8,36.3,24.9,36.2,24.8z"/>
	<path class="st0" d="M9.1,25.4C8.9,25.2,9,25,9.7,23.8c0.7-1.2,4.6-8.1,8.2-14.7c2-3.6,2-3.7,2.3-3.6c0.3,0,0.3,0,1.9,2.8
		c0.3,0.5,1,1.7,1.5,2.6c0.5,0.9,1.4,2.5,2,3.4c0.5,0.9,1.2,2,1.4,2.4c0.2,0.4,0.7,1.1,1,1.7c0.3,0.5,0.8,1.3,1,1.8
		c1.8,3.2,2.8,4.9,2.8,5s-0.1,0.2-0.1,0.3C31.6,25.6,9.2,25.6,9.1,25.4z M30.4,24.3c-0.1-0.2-0.4-0.7-0.6-1.1
		c-0.4-0.7-1.8-3-4.8-8.3c-0.4-0.8-1.6-2.7-2.5-4.3s-1.8-3.1-2-3.4s-0.3-0.5-0.4-0.4c0,0-0.2,0.3-0.3,0.5c-0.3,0.5-1.3,2.3-2.2,3.9
		c-0.4,0.6-1.1,2-1.7,3.1c-1.2,2.2-2,3.6-2.9,5.2c-2.3,4.2-2.8,5-2.8,5.1c0,0,4.6,0.1,10.2,0.1h10.2L30.4,24.3z"/>
</g>
</svg>
