<svg xmlns="http://www.w3.org/2000/svg" viewBox="0 0 26.83 31.01"><defs><style>.cls-1{fill:#0d0e10;}</style></defs><g id="Capa_2" data-name="Capa 2"><g id="Capa_1-2" data-name="Capa 1"><g id="Layer_2" data-name="Layer 2"><g id="Layer_1-2" data-name="Layer 1-2"><g id="surface1"><path class="cls-1" d="M24.64,5.46c-8.45,5.73-14.26,20.09-14.26,20.09A59.34,59.34,0,0,0,7.87,14.12c2.64.25,3.58,4.33,3.58,4.33C12.54,13.8,16.6,5.85,19.26.94A16.2,16.2,0,0,0,13.58,0,13.88,13.88,0,0,0,6.24,1.85,11.52,11.52,0,0,0,1.59,7.24,20.76,20.76,0,0,0,0,15.77q0,7.59,3.26,11.42T13,31a16.67,16.67,0,0,0,5.64-.91A11.15,11.15,0,0,0,23,27.26a13.18,13.18,0,0,0,2.79-4.94,23.77,23.77,0,0,0,1-7.2,19,19,0,0,0-2.1-9.59Z"/></g></g></g></g></g></svg>