<?xml version="1.0" encoding="utf-8"?>
<!-- Generator: Adobe Illustrator 25.2.0, SVG Export Plug-In . SVG Version: 6.00 Build 0)  -->
<svg version="1.1" id="svg" xmlns="http://www.w3.org/2000/svg" xmlns:xlink="http://www.w3.org/1999/xlink" x="0px" y="0px"
	 viewBox="0 0 400 261.4" style="enable-background:new 0 0 400 261.4;" xml:space="preserve">
<style type="text/css">
	.st0{fill-rule:evenodd;clip-rule:evenodd;fill:#0D0E10;}
</style>
<g id="svgg">
	<path id="path4" class="st0" d="M237.2,0.2c-5.3,0.1-6.4,0.2-6.5,0.5C230.6,1,229.8,1,226.5,1c-2.5,0-4,0.1-4,0.3
		c0,0.2-1.3,0.3-3.3,0.3c-2,0-3.3,0.1-3.3,0.3c0,0.2-1,0.3-2.6,0.3c-1.6,0-2.6,0.1-2.6,0.3c0,0.2-1,0.3-2.6,0.3
		c-1.6,0-2.6,0.1-2.6,0.3c0,0.2-0.8,0.3-2,0.3c-1.5,0-2,0.1-2.1,0.4c-0.1,0.3-0.6,0.4-2,0.4c-1,0-1.8,0.1-1.8,0.3
		c0,0.1-0.7,0.3-1.7,0.3c-1,0-1.7,0.1-1.7,0.3c0,0.1-0.8,0.3-1.8,0.3c-1,0-1.8,0.1-1.8,0.3c0,0.1-0.6,0.3-1.4,0.3
		c-1.1,0-1.4,0.1-1.4,0.4s-0.3,0.4-1.4,0.4c-0.8,0-1.4,0.1-1.4,0.3c0,0.1-0.6,0.3-1.4,0.3s-1.5,0.1-1.6,0.3s-0.6,0.3-1.2,0.3
		s-1,0.1-1,0.3c0,0.1-0.6,0.3-1.3,0.3c-0.8,0-1.4,0.2-1.7,0.4c-0.2,0.2-0.8,0.4-1.3,0.4c-0.5,0-1,0.1-1.1,0.3s-0.6,0.3-1.2,0.3
		s-1.1,0.1-1.2,0.3c-0.1,0.1-0.5,0.3-0.9,0.3c-0.4,0-0.8,0.1-0.8,0.3c0,0.1-0.5,0.3-1.1,0.3c-0.7,0-1.1,0.1-1.2,0.4
		c-0.1,0.2-0.5,0.4-1,0.4c-0.5,0-0.9,0.1-0.9,0.3s-0.5,0.3-1.2,0.3c-0.6,0-1.2,0.1-1.2,0.3c0,0.1-0.4,0.3-0.9,0.3
		c-0.5,0-0.9,0.1-0.9,0.3c0,0.1-0.4,0.3-0.8,0.3c-0.5,0-0.9,0.2-0.9,0.4c-0.1,0.2-0.5,0.4-0.9,0.4c-0.4,0-0.8,0.1-0.8,0.3
		s-0.4,0.3-0.9,0.3c-0.5,0-0.9,0.1-0.9,0.3c0,0.1-0.3,0.3-0.8,0.3c-0.4,0-0.8,0.1-0.9,0.3c-0.1,0.1-0.4,0.3-0.7,0.3
		c-0.3,0-0.5,0.2-0.5,0.4c0,0.3-0.3,0.4-0.9,0.4c-0.5,0-0.9,0.1-0.9,0.3c0,0.1-0.3,0.3-0.8,0.3c-0.4,0-0.8,0.1-0.9,0.3
		c-0.1,0.1-0.4,0.3-0.7,0.3c-0.3,0-0.5,0.1-0.5,0.3c0,0.1-0.3,0.3-0.6,0.3c-0.3,0-0.8,0.2-1,0.4c-0.2,0.2-0.6,0.4-0.9,0.4
		c-0.3,0-0.5,0.1-0.5,0.3c0,0.1-0.4,0.3-0.8,0.3s-0.8,0.1-0.8,0.3c0,0.1-0.3,0.3-0.7,0.3c-0.4,0-0.7,0.1-0.7,0.3
		c0,0.1-0.2,0.3-0.5,0.3c-0.3,0-0.5,0.2-0.5,0.4c0,0.2-0.2,0.4-0.7,0.4c-0.4,0-0.7,0.1-0.7,0.3c0,0.1-0.4,0.3-0.8,0.3
		c-0.4,0-0.8,0.1-0.8,0.3c0,0.1-0.2,0.3-0.5,0.3c-0.3,0-0.6,0.1-0.7,0.3c-0.1,0.1-0.4,0.3-0.7,0.3c-0.3,0-0.6,0.2-0.7,0.4
		c-0.1,0.2-0.4,0.4-0.6,0.4s-0.5,0.1-0.5,0.3c0,0.1-0.2,0.3-0.5,0.3c-0.3,0-0.5,0.1-0.5,0.3c0,0.1-0.2,0.3-0.5,0.3
		c-0.3,0-0.7,0.1-0.9,0.3c-0.9,0.8-1.2,1-1.7,1c-0.3,0-0.5,0.1-0.5,0.3c0,0.1-0.2,0.3-0.5,0.3s-0.5,0.1-0.5,0.3
		c0,0.1-0.2,0.3-0.4,0.3c-0.2,0-0.4,0.1-0.4,0.3c0,0.1-0.2,0.3-0.5,0.3c-0.3,0-0.5,0.2-0.5,0.4c0,0.2-0.2,0.4-0.7,0.4
		c-0.4,0-0.7,0.1-0.7,0.3c0,0.1-0.2,0.3-0.5,0.3c-0.3,0-0.6,0.2-0.8,0.5c-0.2,0.3-0.6,0.5-1,0.5c-0.4,0-0.6,0.2-0.6,0.4
		c0,0.2-0.2,0.4-0.5,0.4c-0.3,0-0.5,0.1-0.5,0.3c0,0.1-0.2,0.3-0.4,0.3c-0.2,0-0.4,0.1-0.4,0.3c0,0.1-0.2,0.3-0.5,0.3
		c-0.3,0-0.5,0.1-0.5,0.3c0,0.1-0.2,0.3-0.4,0.3s-0.7,0.3-1,0.7c-0.4,0.4-0.8,0.7-1.1,0.7c-0.2,0-0.4,0.1-0.4,0.3
		c0,0.1-0.2,0.3-0.4,0.3c-0.2,0-0.4,0.1-0.4,0.3s-0.2,0.3-0.4,0.3c-0.2,0-0.6,0.3-0.8,0.7c-0.3,0.4-0.7,0.7-0.9,0.7
		c-0.2,0-0.7,0.2-1,0.5c-0.3,0.3-0.7,0.5-0.8,0.5s-0.7,0.4-1.2,0.9c-0.5,0.5-1.1,0.9-1.3,0.9c-0.2,0-0.4,0.1-0.4,0.3
		c0,0.1-0.2,0.3-0.4,0.3c-0.2,0-0.4,0.1-0.4,0.3c0,0.4-0.7,1-1.2,1c-0.2,0-0.4,0.1-0.4,0.3s-0.1,0.3-0.3,0.3c-0.3,0-1,0.6-1,0.9
		c0,0.4-0.8,0.9-1.3,0.9c-0.3,0-0.5,0.1-0.5,0.3c0,0.2-0.9,0.3-2.1,0.3c-1.2,0-2.1,0.1-2.1,0.3c0,0.1-0.7,0.3-1.7,0.3
		c-1.3,0-1.7,0.1-1.7,0.4c0,0.3-0.4,0.4-1.7,0.4c-0.9,0-1.8,0.1-1.8,0.3c-0.1,0.1-0.8,0.3-1.6,0.3c-0.8,0-1.4,0.1-1.4,0.3
		c0,0.1-0.6,0.3-1.4,0.3s-1.4,0.1-1.4,0.3s-0.5,0.3-1.2,0.3c-0.9,0-1.2,0.1-1.2,0.4c0,0.3-0.3,0.4-1.4,0.4c-0.8,0-1.4,0.1-1.4,0.3
		s-0.5,0.3-1.2,0.3c-0.6,0-1.2,0.1-1.2,0.3c0,0.1-0.4,0.3-0.9,0.3c-0.5,0-0.9,0.1-0.9,0.3c0,0.1-0.5,0.3-1.2,0.3
		c-0.9,0-1.2,0.1-1.2,0.4c0,0.3-0.3,0.4-0.9,0.4c-0.5,0-0.9,0.1-0.9,0.3s-0.5,0.3-1,0.3s-1.1,0.1-1.2,0.3c-0.1,0.1-0.5,0.3-0.9,0.3
		c-0.4,0-0.8,0.1-0.8,0.3c0,0.1-0.4,0.3-0.9,0.3c-0.6,0-0.9,0.1-0.9,0.4c0,0.3-0.3,0.4-0.9,0.4c-0.5,0-0.9,0.1-0.9,0.3
		s-0.3,0.3-0.8,0.3c-0.4,0-0.8,0.1-0.9,0.3C64.9,51.9,64.5,52,64,52c-0.4,0-0.8,0.1-0.8,0.3c0,0.1-0.3,0.3-0.7,0.3
		c-0.4,0-0.7,0.1-0.7,0.4c0,0.3-0.3,0.4-0.8,0.4c-0.4,0-0.8,0.1-0.8,0.3c0,0.1-0.3,0.3-0.7,0.3c-0.4,0-0.7,0.1-0.7,0.3
		c0,0.1-0.3,0.3-0.8,0.3c-0.4,0-0.8,0.1-0.9,0.3c-0.1,0.1-0.4,0.3-0.7,0.3s-0.5,0.1-0.5,0.3c0,0.1-0.2,0.3-0.5,0.3s-0.6,0.2-0.7,0.4
		c-0.1,0.2-0.4,0.4-0.6,0.4c-0.3,0-0.5,0.1-0.5,0.3c0,0.1-0.4,0.3-0.9,0.3c-0.5,0-0.9,0.1-0.9,0.3c0,0.1-0.2,0.3-0.5,0.3
		c-0.3,0-0.5,0.1-0.5,0.3c0,0.1-0.2,0.3-0.5,0.3s-0.6,0.2-0.7,0.4c-0.1,0.2-0.4,0.4-0.6,0.4c-0.3,0-0.6,0.1-0.6,0.3
		c-0.1,0.1-0.4,0.3-0.7,0.3s-0.5,0.1-0.5,0.3c0,0.1-0.2,0.3-0.5,0.3c-0.3,0-0.5,0.1-0.5,0.3s-0.2,0.3-0.4,0.3s-0.7,0.3-1,0.7
		c-0.4,0.4-0.9,0.7-1.2,0.7c-0.3,0-0.5,0.1-0.5,0.3c0,0.1-0.2,0.3-0.5,0.3c-0.3,0-0.5,0.1-0.5,0.3s-0.2,0.3-0.4,0.3s-0.7,0.3-1,0.7
		c-0.4,0.4-0.8,0.7-1.1,0.7s-0.4,0.1-0.4,0.3c0,0.1-0.2,0.3-0.5,0.3c-0.6,0-1.4,0.6-1.4,1c0,0.2-0.2,0.3-0.5,0.3
		c-0.3,0-0.7,0.2-1,0.5c-0.3,0.3-0.7,0.5-0.9,0.5s-0.6,0.3-0.9,0.7c-0.3,0.4-0.8,0.7-1,0.7c-0.2,0-0.5,0.2-0.7,0.5
		c-0.2,0.3-0.5,0.5-0.6,0.5c-0.2,0-0.6,0.3-1.6,1.2c-0.3,0.3-0.7,0.6-0.8,0.6c-0.1,0-0.4,0.3-0.8,0.6c-1.6,1.5-1.9,1.8-2.1,1.8
		c-0.3,0-1.4,1.3-1.4,1.6c0,0.2-0.1,0.3-0.3,0.3c-0.4,0-2.1,1.7-2.1,2.1c0,0.1-0.1,0.3-0.3,0.3c-0.4,0-2.1,1.7-2.1,2.1
		c0,0.1-0.1,0.3-0.3,0.3c-0.3,0-1.4,1.1-2.2,2.2c-0.3,0.4-0.8,1-1.1,1.3c-0.3,0.3-0.6,0.7-0.6,0.8s-0.3,0.4-0.6,0.8
		c-1,1-1.2,1.4-1.2,1.7c0,0.2-0.1,0.3-0.3,0.3c-0.1,0-0.3,0.2-0.3,0.5c0,0.3-0.3,0.7-0.7,1c-0.4,0.3-0.7,0.7-0.7,0.9
		c0,0.2-0.2,0.6-0.5,0.8c-0.3,0.2-0.5,0.6-0.5,1c0,0.3-0.1,0.6-0.3,0.6S11,91.7,11,92c0,0.3-0.1,0.5-0.3,0.5c-0.4,0-1,0.8-1,1.4
		c0,0.3-0.1,0.5-0.3,0.5s-0.3,0.2-0.3,0.5c0,0.3-0.1,0.6-0.3,0.7c-0.1,0.1-0.3,0.3-0.3,0.6c0,0.2-0.2,0.6-0.4,0.8
		c-0.2,0.2-0.4,0.7-0.4,1s-0.1,0.6-0.3,0.6c-0.1,0-0.3,0.2-0.3,0.5s-0.1,0.5-0.3,0.5s-0.3,0.3-0.3,0.7c0,0.4-0.1,0.7-0.3,0.7
		c-0.1,0-0.3,0.3-0.3,0.8c0,0.4-0.2,0.8-0.4,0.9c-0.2,0.1-0.4,0.4-0.4,0.7s-0.1,0.5-0.3,0.5S5,104.2,5,104.7s-0.1,0.9-0.3,0.9
		s-0.3,0.2-0.3,0.5c0,0.3-0.1,0.5-0.3,0.5s-0.3,0.5-0.3,1.2c0,0.9-0.1,1.2-0.4,1.2c-0.3,0-0.4,0.3-0.4,0.9c0,0.5-0.1,0.9-0.3,0.9
		c-0.1,0-0.3,0.5-0.3,1.2c0,0.6-0.1,1.2-0.3,1.2c-0.1,0-0.3,0.6-0.3,1.4c0,0.8-0.1,1.4-0.3,1.4c-0.1,0-0.3,0.7-0.3,1.7
		c0,1-0.1,1.7-0.3,1.7c-0.2,0-0.3,0.9-0.3,2.3c0,1.7-0.1,2.4-0.4,2.5c-0.8,0.3-0.8,28.2,0,28.2C1,152.4,1,153,1,155
		c0,1.6,0.1,2.6,0.3,2.6c0.2,0,0.3,0.9,0.3,2.1s0.1,2.1,0.3,2.1c0.1,0,0.3,0.7,0.3,1.7c0,0.9,0.1,1.8,0.3,1.8
		c0.1,0.1,0.3,0.8,0.3,1.6c0,0.8,0.1,1.4,0.3,1.4c0.1,0,0.3,0.5,0.3,1.1c0,0.7,0.1,1.1,0.4,1.2c0.3,0.1,0.4,0.5,0.4,1.3
		c0,0.6,0.1,1.1,0.3,1.1s0.3,0.4,0.3,0.9s0.1,0.9,0.3,0.9s0.3,0.4,0.3,0.8c0,0.4,0.1,0.8,0.3,0.8s0.3,0.4,0.3,0.9
		c0,0.6,0.1,0.9,0.4,0.9s0.4,0.3,0.4,0.9c0,0.5,0.1,0.9,0.3,0.9c0.1,0,0.3,0.2,0.3,0.5c0,0.3,0.1,0.5,0.3,0.5s0.3,0.3,0.3,0.8
		c0,0.4,0.1,0.8,0.3,0.9c0.1,0.1,0.3,0.4,0.3,0.7c0,0.3,0.2,0.5,0.4,0.5c0.2,0,0.4,0.2,0.4,0.7c0,0.4,0.1,0.7,0.3,0.7
		s0.3,0.2,0.3,0.5c0,0.3,0.1,0.5,0.3,0.5s0.3,0.2,0.3,0.5c0,0.6,0.6,1.4,1,1.4c0.2,0,0.3,0.3,0.3,0.7c0,0.4,0.1,0.7,0.3,0.7
		s0.3,0.2,0.3,0.5c0,0.3,0.2,0.6,0.5,0.8c0.3,0.2,0.5,0.6,0.5,0.8c0,0.2,0.3,0.6,0.7,0.9c0.4,0.3,0.7,0.7,0.7,1
		c0,0.5,1.1,1.8,1.6,1.8c0.1,0,0.3,0.2,0.3,0.5c0,0.5,1.6,2.3,2.1,2.3c0.1,0,0.3,0.2,0.3,0.5c0,0.3,0.8,1.3,2,2.5
		c1.1,1.1,2,2.1,2,2.2c0,0.1,0.1,0.3,0.3,0.3c0.1,0,2,1.7,4,3.8c2.1,2.1,3.9,3.8,4.1,3.8c0.2,0,0.5,0.2,0.7,0.5
		c0.2,0.3,0.5,0.5,0.7,0.5s0.3,0.1,0.3,0.3c0,0.4,1.2,1.6,1.7,1.6c0.4,0,1.2,0.6,1.2,0.9c0,0.3,1.4,1.4,1.8,1.4
		c0.2,0,0.7,0.4,1.1,0.9c0.4,0.5,1,0.9,1.2,0.9c0.2,0,0.6,0.2,0.8,0.5c0.2,0.3,0.6,0.5,1,0.5c0.3,0,0.6,0.1,0.6,0.3
		c0,0.4,1.2,1.6,1.7,1.6c0.2,0,0.7,0.3,1,0.6c1,1,1.4,1.2,1.7,1.2c0.2,0,0.3,0.1,0.3,0.3c0,0.1,0.2,0.3,0.5,0.3
		c0.3,0,0.5,0.1,0.5,0.3s0.2,0.3,0.4,0.3c0.2,0,0.7,0.3,1,0.7c0.3,0.4,0.8,0.7,1,0.7c0.2,0,0.4,0.1,0.4,0.3s0.2,0.3,0.4,0.3
		c0.2,0,0.4,0.1,0.4,0.3s0.2,0.3,0.5,0.3c0.3,0,0.6,0.2,0.6,0.4c0.1,0.2,0.3,0.4,0.6,0.4c0.2,0,0.4,0.1,0.4,0.3s0.2,0.3,0.4,0.3
		s0.4,0.1,0.4,0.3s0.2,0.3,0.5,0.3c0.3,0,0.5,0.1,0.5,0.3c0,0.1,0.3,0.3,0.7,0.3c0.4,0,0.7,0.1,0.7,0.4c0,0.2,0.2,0.4,0.5,0.4
		c0.3,0,0.5,0.1,0.5,0.3s0.2,0.3,0.4,0.3s0.4,0.1,0.4,0.3s0.2,0.3,0.5,0.3c0.3,0,0.5,0.1,0.5,0.3c0,0.1,0.2,0.3,0.5,0.3
		c0.3,0,0.6,0.2,0.6,0.4c0.1,0.2,0.4,0.4,0.7,0.4s0.5,0.1,0.5,0.3s0.2,0.3,0.5,0.3c0.3,0,0.5,0.1,0.5,0.3c0,0.1,0.3,0.3,0.7,0.3
		c0.4,0,0.7,0.1,0.7,0.3c0,0.1,0.2,0.3,0.5,0.3c0.3,0,0.6,0.2,0.6,0.4c0.1,0.2,0.4,0.4,0.7,0.4s0.5,0.1,0.5,0.3
		c0,0.1,0.2,0.3,0.5,0.3c0.3,0,0.5,0.1,0.5,0.3c0,0.1,0.3,0.3,0.7,0.3c0.4,0,0.7,0.1,0.7,0.3c0,0.1,0.2,0.3,0.5,0.3
		c0.3,0,0.5,0.1,0.5,0.3c0,0.1,0.3,0.3,0.7,0.3c0.4,0,0.7,0.1,0.7,0.4c0,0.2,0.2,0.4,0.5,0.4s0.6,0.1,0.7,0.3
		c0.1,0.1,0.4,0.3,0.7,0.3s0.5,0.1,0.5,0.3c0,0.1,0.4,0.3,0.9,0.3c0.5,0,0.9,0.1,0.9,0.3c0,0.1,0.2,0.3,0.5,0.3
		c0.3,0,0.5,0.2,0.5,0.4c0,0.2,0.2,0.4,0.7,0.4c0.4,0,0.7,0.1,0.7,0.3c0,0.1,0.4,0.3,0.8,0.3s0.8,0.1,0.8,0.3c0,0.1,0.3,0.3,0.7,0.3
		c0.4,0,0.7,0.1,0.7,0.3c0,0.1,0.2,0.3,0.5,0.3c0.3,0,0.6,0.2,0.6,0.4c0.1,0.2,0.5,0.4,0.9,0.4c0.4,0,0.8,0.1,0.8,0.3
		c0,0.1,0.4,0.3,0.9,0.3c0.5,0,0.9,0.1,0.9,0.3c0,0.1,0.2,0.3,0.5,0.3c0.3,0,0.5,0.1,0.5,0.3c0,0.1,0.4,0.3,0.9,0.3
		c0.6,0,0.9,0.1,0.9,0.4s0.3,0.4,0.9,0.4c0.5,0,0.9,0.1,0.9,0.3c0,0.1,0.2,0.3,0.5,0.3s0.6,0.1,0.7,0.3c0.1,0.1,0.5,0.3,0.9,0.3
		c0.4,0,0.8,0.1,0.8,0.3c0,0.1,0.4,0.3,0.9,0.3c0.5,0,0.9,0.1,1,0.4c0.1,0.2,0.5,0.4,0.9,0.4c0.4,0,0.8,0.1,0.8,0.3
		c0,0.1,0.5,0.3,1,0.3c0.6,0,1,0.1,1,0.3c0,0.1,0.4,0.3,0.9,0.3c0.5,0,0.9,0.1,0.9,0.3s0.4,0.3,0.9,0.3c0.6,0,0.9,0.1,0.9,0.4
		c0,0.3,0.3,0.4,0.9,0.4c0.5,0,0.9,0.1,0.9,0.3c0,0.1,0.5,0.3,1.2,0.3c0.6,0,1.2,0.1,1.2,0.3s0.5,0.3,1.2,0.3s1.2,0.1,1.2,0.3
		s0.4,0.3,0.8,0.3c0.5,0,0.9,0.2,0.9,0.4c0.1,0.3,0.5,0.4,1.3,0.4c0.6,0,1.1,0.1,1.1,0.3c0,0.1,0.5,0.3,1.2,0.3
		c0.6,0,1.2,0.1,1.2,0.3s0.6,0.3,1.4,0.3c0.8,0,1.4,0.1,1.4,0.3s0.5,0.3,1.2,0.3c0.9,0,1.2,0.1,1.2,0.4c0,0.3,0.3,0.4,1.4,0.4
		c0.8,0,1.4,0.1,1.4,0.3s0.5,0.3,1.2,0.3c0.6,0,1.2,0.1,1.2,0.3s0.6,0.3,1.4,0.3s1.4,0.1,1.4,0.3c0,0.1,0.8,0.3,1.8,0.3
		c1.5,0,1.8,0.1,1.8,0.4c0,0.3,0.4,0.4,1.7,0.4c1,0,1.7,0.1,1.7,0.3c0,0.1,0.7,0.3,1.7,0.3c1,0,1.7,0.1,1.7,0.3
		c0,0.1,0.8,0.3,1.8,0.3c1,0,1.8,0.1,1.8,0.3c0,0.2,0.8,0.3,2,0.3c1.4,0,2.1,0.1,2.4,0.4c0.3,0.3,1,0.4,2.7,0.4
		c1.4,0,2.3,0.1,2.3,0.3c0,0.2,1,0.3,2.6,0.3c1.6,0,2.6,0.1,2.6,0.3c0,0.2,1.2,0.3,3,0.3s3,0.1,3,0.3c0,0.2,1.5,0.3,4.1,0.3
		c3.4,0,4.1,0.1,4.1,0.4c0,0.3,0.8,0.4,5.9,0.4c4.5,0,5.9,0.1,6,0.3c0.2,0.5,64.8,0.5,65,0c0.1-0.2,1-0.3,3.6-0.3
		c2.9,0,3.5-0.1,3.5-0.4c0-0.3,0.5-0.4,3.3-0.4c2,0,3.3-0.1,3.3-0.3c0-0.2,1-0.3,2.4-0.3c1.4,0,2.4-0.1,2.4-0.3s1-0.3,2.4-0.3
		c1.4,0,2.4-0.1,2.4-0.3c0-0.2,0.8-0.3,2-0.3c1.5,0,2-0.1,2.1-0.4c0.1-0.3,0.6-0.4,2.1-0.4c1.1,0,1.9-0.1,1.9-0.3
		c0-0.1,0.7-0.3,1.6-0.3c0.9,0,1.6-0.1,1.6-0.3c0-0.1,0.7-0.3,1.7-0.3c1,0,1.7-0.1,1.7-0.3c0-0.1,0.6-0.3,1.4-0.3
		c1.1,0,1.4-0.1,1.4-0.4s0.3-0.4,1.4-0.4c0.8,0,1.4-0.1,1.4-0.3c0-0.1,0.5-0.3,1.2-0.3s1.2-0.1,1.2-0.3s0.6-0.3,1.4-0.3
		c0.8,0,1.5-0.1,1.6-0.3c0.1-0.1,0.6-0.3,1.2-0.3c0.7,0,1.1-0.1,1.2-0.4c0.1-0.3,0.5-0.4,1.3-0.4c0.6,0,1.1-0.1,1.1-0.3
		s0.5-0.3,1-0.3c0.6,0,1.1-0.1,1.2-0.3c0.1-0.1,0.5-0.3,0.9-0.3s0.8-0.1,0.8-0.3c0-0.1,0.5-0.3,1.1-0.3c0.7,0,1.1-0.1,1.2-0.4
		c0.1-0.2,0.5-0.4,1-0.4c0.5,0,0.9-0.1,0.9-0.3s0.4-0.3,0.9-0.3s0.9-0.1,0.9-0.3s0.3-0.3,0.8-0.3c0.4,0,0.8-0.1,0.9-0.3
		c0.1-0.1,0.5-0.3,0.9-0.3c0.5,0,0.8-0.1,0.8-0.4c0-0.3,0.3-0.4,0.9-0.4c0.5,0,0.9-0.1,0.9-0.3s0.4-0.3,0.9-0.3
		c0.5,0,0.9-0.1,0.9-0.3c0-0.1,0.2-0.3,0.5-0.3c0.3,0,0.5-0.1,0.5-0.3c0-0.1,0.4-0.3,0.9-0.3c0.6,0,0.9-0.1,0.9-0.4s0.3-0.4,0.9-0.4
		c0.5,0,0.9-0.1,0.9-0.3c0-0.1,0.2-0.3,0.5-0.3c0.3,0,0.5-0.1,0.5-0.3c0-0.1,0.3-0.3,0.7-0.3c0.4,0,0.7-0.1,0.7-0.3
		c0-0.1,0.4-0.3,0.8-0.3c0.5,0,0.9-0.2,0.9-0.4c0.1-0.2,0.4-0.4,0.6-0.4c0.3,0,0.5-0.1,0.5-0.3c0-0.1,0.3-0.3,0.7-0.3
		c0.4,0,0.7-0.1,0.7-0.3c0-0.1,0.2-0.3,0.5-0.3c0.3,0,0.5-0.1,0.5-0.3c0-0.1,0.4-0.3,0.8-0.3c0.5,0,0.9-0.2,0.9-0.4
		c0.1-0.2,0.4-0.4,0.6-0.4c0.3,0,0.5-0.1,0.5-0.3c0-0.1,0.2-0.3,0.5-0.3c0.3,0,0.6-0.1,0.7-0.3c0.1-0.1,0.4-0.3,0.7-0.3
		s0.5-0.1,0.5-0.3c0-0.1,0.2-0.3,0.5-0.3c0.3,0,0.7-0.3,1-0.7c0.3-0.4,0.7-0.7,1-0.7c0.3,0,0.5-0.1,0.5-0.3c0-0.1,0.3-0.3,0.7-0.3
		c0.4,0,0.7-0.1,0.7-0.3c0-0.1,0.2-0.3,0.5-0.3c0.3,0,0.5-0.2,0.5-0.4c0-0.2,0.2-0.4,0.4-0.4c0.2,0,0.4-0.1,0.4-0.3
		c0-0.1,0.2-0.3,0.5-0.3c0.3,0,0.5-0.1,0.5-0.3c0-0.1,0.3-0.3,0.6-0.3c0.3,0,0.8-0.2,1-0.5c0.2-0.3,0.6-0.5,0.8-0.5
		c0.3,0,0.5-0.2,0.5-0.4c0-0.2,0.2-0.4,0.4-0.4s0.4-0.1,0.4-0.3c0-0.1,0.2-0.3,0.5-0.3c0.3,0,0.6-0.2,0.8-0.5
		c0.2-0.3,0.5-0.5,0.7-0.5c0.2,0,0.7-0.4,1.2-0.9c0.5-0.5,1.1-0.9,1.2-0.9c0.4,0,1.3-0.6,1.3-0.9c0-0.3,0.7-0.9,1-0.9
		c0.2,0,0.3-0.1,0.3-0.2c0-0.1,0.4-0.4,0.8-0.5c0.4-0.2,0.8-0.5,0.8-0.7c0-0.2,0.1-0.4,0.3-0.4c0.4,0,2.1-1.7,2.1-2.1
		c0-0.1,0.1-0.3,0.3-0.3c0.4,0,2.1-1.7,2.1-2.1c0-0.1,0.1-0.3,0.3-0.3c0.4,0,2.1-1.7,2.1-2.1c0-0.1,0.1-0.3,0.3-0.3
		c0.4,0,1.6-1.2,1.6-1.6c0-0.2,0.1-0.3,0.3-0.3c0.1,0,0.3-0.2,0.3-0.5c0-0.3,0.1-0.5,0.3-0.5c0.2,0,0.6-0.3,0.9-0.7s0.7-0.8,0.8-1
		c0.2-0.2,0.3-0.5,0.3-0.7s0.2-0.4,0.3-0.4c0.2,0,0.5-0.3,0.7-0.7c0.2-0.4,0.4-0.7,0.6-0.7c0.1,0,0.2-0.2,0.2-0.5
		c0-0.3,0.1-0.5,0.3-0.5c0.1,0,0.3-0.2,0.3-0.4c0-0.2,0.2-0.4,0.4-0.5c0.2-0.1,0.4-0.3,0.4-0.6s0.1-0.4,0.3-0.4
		c0.1,0,0.3-0.2,0.3-0.5c0-0.3,0.1-0.5,0.3-0.5c0.1,0,0.3-0.2,0.3-0.4s0.1-0.4,0.3-0.4c0.1,0,0.3-0.2,0.3-0.5c0-0.3,0.2-0.6,0.4-0.6
		c0.2-0.1,0.4-0.4,0.4-0.7c0-0.3,0.1-0.5,0.3-0.5c0.1,0,0.3-0.2,0.3-0.4c0-0.2,0.2-0.7,0.5-1c0.3-0.3,0.5-0.7,0.5-0.9
		c0-0.2,0.2-0.5,0.4-0.8c0.2-0.2,0.4-0.7,0.4-1s0.1-0.6,0.3-0.6c0.1,0,0.3-0.2,0.3-0.5s0.1-0.5,0.3-0.5s0.3-0.3,0.3-0.7
		c0-0.4,0.1-0.7,0.3-0.7c0.1,0,0.3-0.2,0.3-0.4s0.2-0.6,0.4-0.8c0.2-0.2,0.4-0.7,0.4-1s0.1-0.6,0.3-0.6c0.1,0,0.3-0.4,0.3-0.9
		c0-0.5,0.1-0.9,0.3-0.9c0.1,0,0.3-0.4,0.3-0.8c0-0.4,0.1-0.8,0.3-0.8c0.1,0,0.3-0.4,0.3-0.9c0-0.5,0.1-0.9,0.3-0.9
		c0.1,0,0.3-0.4,0.3-0.9c0-0.5,0.1-0.9,0.4-1c0.2-0.1,0.4-0.3,0.4-0.6s0.1-0.4,0.3-0.4c0.1,0,0.3-0.3,0.3-0.6c0-0.3,0.2-0.8,0.5-1
		c0.3-0.2,0.5-0.6,0.5-1c0-0.4,0.2-0.6,0.4-0.6c0.2,0,0.4-0.2,0.4-0.5c0-0.3,0.2-0.6,0.5-0.8s0.5-0.6,0.5-1c0-0.3,0.1-0.6,0.3-0.6
		s0.3-0.2,0.3-0.5c0-0.3,0.2-0.5,0.4-0.5c0.2,0,0.4-0.2,0.4-0.7c0-0.4,0.1-0.7,0.3-0.7c0.1,0,0.3-0.2,0.3-0.5c0-0.3,0.1-0.5,0.3-0.5
		c0.1,0,0.3-0.2,0.3-0.4c0-0.2,0.1-0.4,0.3-0.4s0.3-0.2,0.3-0.5c0-0.3,0.2-0.6,0.4-0.6c0.2-0.1,0.4-0.4,0.4-0.7
		c0-0.3,0.1-0.5,0.3-0.5c0.1,0,0.3-0.4,0.3-0.8c0-0.4,0.1-0.8,0.3-0.8c0.1,0,0.3-0.3,0.3-0.7c0-0.4,0.1-0.7,0.3-0.7
		c0.1,0,0.3-0.2,0.3-0.5c0-0.3,0.2-0.5,0.4-0.5c0.2,0,0.4-0.2,0.4-0.7c0-0.4,0.1-0.7,0.3-0.7c0.1,0,0.3-0.2,0.3-0.5
		c0-0.3,0.1-0.6,0.3-0.7c0.1-0.1,0.3-0.5,0.3-0.9c0-0.4,0.1-0.8,0.3-0.8c0.1,0,0.3-0.2,0.3-0.5c0-0.3,0.2-0.6,0.4-0.7
		c0.2-0.1,0.4-0.5,0.4-0.9c0-0.4,0.1-0.8,0.3-0.8c0.1,0,0.3-0.3,0.3-0.7c0-0.4,0.1-0.7,0.3-0.7c0.1,0,0.3-0.4,0.3-0.9
		c0-0.5,0.1-0.9,0.3-0.9c0.1,0,0.3-0.3,0.3-0.8c0-0.4,0.2-0.8,0.4-0.9c0.2-0.1,0.4-0.5,0.4-0.9c0-0.4,0.1-0.9,0.3-0.9
		c0.1-0.1,0.3-0.6,0.3-1.2c0-0.6,0.1-1,0.3-1c0.1,0,0.3-0.4,0.3-0.9c0-0.5,0.1-0.9,0.3-0.9c0.1,0,0.3-0.5,0.3-1.2
		c0-0.9,0.1-1.2,0.4-1.2c0.3,0,0.4-0.3,0.4-1.2c0-0.6,0.1-1.2,0.3-1.2c0.1,0,0.3-0.5,0.3-1.2c0-0.6,0.1-1.2,0.3-1.2
		c0.1,0,0.3-0.6,0.3-1.4c0-0.8,0.1-1.4,0.3-1.4c0.1,0,0.3-0.6,0.3-1.3c0-0.8,0.1-1.5,0.4-1.7c0.3-0.3,0.4-0.9,0.4-2.2
		c0-1.2,0.1-1.8,0.3-1.9c0.5-0.2,0.5-33.7,0-33.9c-0.2-0.1-0.3-0.7-0.3-1.9c0-1.2-0.1-1.9-0.4-2.2c-0.2-0.2-0.4-0.9-0.4-1.7
		c0-0.7-0.1-1.3-0.3-1.3c-0.1,0-0.3-0.6-0.3-1.4s-0.1-1.4-0.3-1.4c-0.1,0-0.3-0.5-0.3-1.2c0-0.6-0.1-1.2-0.3-1.2
		c-0.1,0-0.3-0.5-0.3-1.2c0-0.9-0.1-1.2-0.4-1.2c-0.3,0-0.4-0.3-0.4-1.2c0-0.6-0.1-1.2-0.3-1.2c-0.1,0-0.3-0.5-0.3-1.2
		s-0.1-1.2-0.3-1.2c-0.1,0-0.3-0.4-0.3-0.9c0-0.5-0.1-0.9-0.3-0.9c-0.1,0-0.3-0.4-0.3-0.8c0-0.5-0.2-0.9-0.4-0.9
		c-0.2-0.1-0.4-0.5-0.4-0.9c0-0.4-0.1-0.8-0.3-0.8c-0.1,0-0.3-0.4-0.3-0.9c0-0.5-0.1-0.9-0.3-0.9c-0.1,0-0.3-0.2-0.3-0.5
		c0-0.3-0.1-0.6-0.3-0.7c-0.1-0.1-0.3-0.5-0.3-0.9c0-0.5-0.1-0.8-0.4-0.8c-0.2,0-0.4-0.2-0.4-0.7c0-0.4-0.1-0.7-0.3-0.7
		c-0.1,0-0.3-0.4-0.3-0.8c0-0.4-0.1-0.8-0.3-0.8c-0.1,0-0.3-0.3-0.3-0.7c0-0.4-0.1-0.7-0.3-0.7c-0.1,0-0.3-0.2-0.3-0.5
		s-0.2-0.6-0.4-0.7c-0.2-0.1-0.4-0.4-0.4-0.6c0-0.3-0.1-0.5-0.3-0.5c-0.1,0-0.3-0.3-0.3-0.7c0-0.4-0.1-0.7-0.3-0.7
		c-0.1,0-0.3-0.3-0.3-0.7c0-0.4-0.3-0.9-0.7-1.3c-0.4-0.3-0.7-0.8-0.7-1c0-0.2-0.1-0.4-0.3-0.4s-0.3-0.3-0.3-0.7
		c0-0.4-0.1-0.7-0.3-0.7c-0.1,0-0.3-0.2-0.3-0.5c0-0.3-0.1-0.5-0.3-0.5c-0.1,0-0.3-0.2-0.3-0.5s-0.2-0.6-0.4-0.7
		c-0.2-0.1-0.4-0.3-0.4-0.6c0-0.2-0.2-0.6-0.5-0.8c-0.3-0.2-0.5-0.6-0.5-1c0-0.3-0.1-0.6-0.3-0.6c-0.1,0-0.3-0.2-0.3-0.4
		c0-0.2-0.3-0.6-0.7-0.8c-0.4-0.3-0.7-0.7-0.7-1c0-0.3-0.2-0.7-0.5-0.9c-0.3-0.2-0.5-0.6-0.5-0.8c0-0.2-0.3-0.6-0.7-0.9
		c-0.4-0.3-0.7-0.7-0.7-1c0-0.3-0.1-0.5-0.3-0.5c-0.1,0-0.3-0.2-0.3-0.4c0-0.2-0.1-0.4-0.2-0.4c-0.1,0-0.4-0.4-0.5-0.8
		c-0.2-0.4-0.5-0.8-0.7-0.8c-0.2,0-0.4-0.2-0.4-0.4c0-0.2-0.1-0.4-0.3-0.4c-0.1,0-0.3-0.2-0.3-0.4c0-0.2-0.5-0.9-1.2-1.6
		c-0.6-0.6-1.2-1.3-1.2-1.5c0-0.2-0.1-0.4-0.2-0.4c-0.1,0-0.4-0.3-0.6-0.7c-0.2-0.4-0.5-0.7-0.6-0.7c-0.4,0-1.5-1.2-1.5-1.6
		c0-0.2-0.4-0.7-0.9-1.1s-0.9-0.9-0.9-1c0-0.2-0.5-0.8-1.7-1.6c-0.4-0.3-0.7-0.6-0.7-0.8c0-0.1-0.3-0.5-0.7-0.8
		c-0.4-0.3-1-0.9-1.4-1.3c-0.4-0.4-0.9-0.9-1.2-1.2c-0.3-0.2-0.9-0.9-1.5-1.4c-0.5-0.5-1.1-1-1.3-1c-0.2,0-0.9-0.6-1.7-1.4
		c-0.8-0.8-1.5-1.4-1.7-1.4c-0.2,0-0.8-0.5-1.5-1.2c-0.6-0.6-1.3-1.2-1.6-1.2c-0.2,0-0.4-0.1-0.4-0.3c0-0.1-0.2-0.3-0.4-0.3
		c-0.2,0-0.4-0.2-0.4-0.4c0-0.2-0.4-0.5-0.8-0.7c-0.4-0.2-0.8-0.4-0.8-0.5c0-0.1-0.2-0.2-0.4-0.2s-0.4-0.1-0.4-0.3
		c0-0.1-0.2-0.3-0.5-0.3c-0.3,0-0.5-0.1-0.5-0.3c0-0.4-0.8-1-1.3-1c-0.2,0-0.6-0.2-0.8-0.5c-0.2-0.3-0.6-0.5-1-0.5
		c-0.3,0-0.6-0.2-0.6-0.4c0-0.2-0.4-0.5-0.8-0.7c-0.4-0.2-0.8-0.4-0.8-0.5c0-0.1-0.2-0.2-0.5-0.2c-0.3,0-0.8-0.3-1.2-0.7
		c-0.4-0.4-0.8-0.7-1-0.7c-0.2,0-0.4-0.1-0.4-0.3c0-0.1-0.2-0.3-0.5-0.3s-0.5-0.1-0.5-0.3c0-0.1-0.3-0.3-0.7-0.3
		c-0.4,0-0.7-0.1-0.7-0.3s-0.2-0.3-0.5-0.3c-0.3,0-0.5-0.2-0.5-0.4c0-0.2-0.2-0.4-0.7-0.4c-0.4,0-0.7-0.1-0.7-0.3
		c0-0.1-0.2-0.3-0.5-0.3c-0.3,0-0.5-0.1-0.5-0.3c0-0.1-0.3-0.3-0.7-0.3c-0.4,0-0.7-0.1-0.7-0.3S334.2,11,334,11
		c-0.2,0-0.6-0.2-0.8-0.4c-0.2-0.2-0.7-0.4-1-0.4s-0.6-0.1-0.6-0.3c0-0.1-0.2-0.3-0.5-0.3c-0.3,0-0.5-0.1-0.5-0.3s-0.4-0.3-0.9-0.3
		c-0.5,0-0.9-0.1-0.9-0.3s-0.2-0.3-0.5-0.3c-0.3,0-0.6-0.2-0.6-0.4c-0.1-0.2-0.5-0.4-0.9-0.4c-0.4,0-0.8-0.1-0.8-0.3
		c0-0.1-0.4-0.3-0.9-0.3c-0.5,0-0.9-0.1-0.9-0.3s-0.4-0.3-0.9-0.3c-0.5,0-0.9-0.1-0.9-0.3c0-0.1-0.3-0.3-0.8-0.3
		c-0.4,0-0.8-0.2-0.9-0.4c-0.1-0.3-0.5-0.4-1.2-0.4c-0.6,0-1.1-0.1-1.2-0.3S317.5,5,317.1,5c-0.4,0-0.8-0.1-0.9-0.3
		c-0.1-0.1-0.6-0.3-1.2-0.3c-0.6,0-1-0.1-1-0.3s-0.6-0.3-1.4-0.3c-1,0-1.5-0.1-1.6-0.4c-0.1-0.3-0.5-0.4-1.3-0.4
		c-0.7,0-1.2-0.1-1.2-0.3c0-0.1-0.7-0.3-1.7-0.3c-1,0-1.7-0.1-1.7-0.3c0-0.1-0.7-0.3-1.7-0.3c-1,0-1.7-0.1-1.7-0.3
		c0-0.2-0.9-0.3-2.1-0.3s-2.1-0.1-2.1-0.3c0-0.2-1-0.3-2.5-0.3c-2.1,0-2.6-0.1-2.9-0.5C291.8,0.1,258.1-0.1,237.2,0.2 M277,15.9
		c0.1,0.2,2,0.3,4.7,0.3c2.7,0,4.6,0.1,4.7,0.3c0.1,0.1,1.4,0.3,3,0.3c1.7,0,2.9,0.1,2.9,0.3c0,0.2,0.8,0.3,2,0.3
		c1.4,0,2.1,0.1,2.4,0.4c0.3,0.3,0.9,0.4,1.8,0.4c0.8,0,1.5,0.1,1.6,0.3c0.1,0.1,0.9,0.3,1.8,0.3c0.9,0,1.7,0.1,1.7,0.3
		c0,0.1,0.5,0.3,1.2,0.3s1.2,0.1,1.2,0.3c0,0.1,0.6,0.3,1.4,0.3c1.1,0,1.4,0.1,1.4,0.4c0,0.3,0.3,0.4,1.2,0.4c0.6,0,1.2,0.1,1.2,0.3
		c0,0.1,0.4,0.3,0.9,0.3s0.9,0.1,0.9,0.3c0,0.1,0.3,0.3,0.8,0.3s0.8,0.1,0.9,0.3c0.1,0.1,0.6,0.3,1.2,0.3c0.7,0,1.1,0.1,1.2,0.4
		c0.1,0.2,0.5,0.4,0.9,0.4c0.4,0,0.8,0.1,0.8,0.3c0,0.1,0.3,0.3,0.7,0.3c0.4,0,0.7,0.1,0.7,0.3c0,0.1,0.4,0.3,0.8,0.3
		c0.4,0,0.8,0.1,0.8,0.3s0.4,0.3,0.9,0.3c0.6,0,0.9,0.1,0.9,0.4c0,0.2,0.2,0.4,0.5,0.4s0.6,0.1,0.7,0.3c0.1,0.1,0.4,0.3,0.7,0.3
		c0.3,0,0.5,0.1,0.5,0.3c0,0.1,0.4,0.3,0.9,0.3c0.5,0,0.9,0.1,0.9,0.3c0,0.1,0.2,0.3,0.5,0.3c0.3,0,0.5,0.1,0.5,0.3
		c0,0.1,0.3,0.3,0.7,0.3c0.4,0,0.7,0.1,0.7,0.4c0,0.2,0.2,0.4,0.5,0.4c0.3,0,0.5,0.1,0.5,0.3c0,0.1,0.3,0.3,0.7,0.3s0.7,0.1,0.7,0.3
		c0,0.1,0.2,0.3,0.5,0.3c0.3,0,0.5,0.1,0.5,0.3c0,0.1,0.3,0.3,0.7,0.3c0.4,0,0.7,0.1,0.7,0.3c0,0.4,0.7,1,1.2,1
		c0.2,0,0.4,0.1,0.4,0.3c0,0.1,0.3,0.3,0.6,0.3c0.3,0,0.8,0.3,1.1,0.7c0.3,0.4,0.7,0.7,0.9,0.7c0.2,0,0.6,0.2,0.8,0.5
		c0.2,0.3,0.6,0.5,0.8,0.5c0.3,0,0.5,0.1,0.5,0.3s0.2,0.3,0.4,0.3c0.2,0,0.4,0.1,0.4,0.3c0,0.1,0.2,0.3,0.5,0.4
		c0.3,0.1,0.7,0.4,1,0.6c0.3,0.3,0.7,0.5,0.9,0.5c0.4,0,1.1,0.6,1.1,0.9c0,0.3,0.9,0.9,1.3,0.9c0.4,0,1.6,1.2,1.6,1.6
		c0,0.2,0.1,0.3,0.3,0.3c0.2,0,0.5,0.2,0.7,0.5c0.2,0.3,0.6,0.5,0.8,0.5c0.3,0,0.5,0.1,0.5,0.3c0,0.1,0.2,0.3,0.4,0.3
		s0.4,0.1,0.4,0.3c0,0.4,1.7,2.1,2.1,2.1c0.1,0,0.3,0.1,0.3,0.3c0,0.4,1.7,2.1,2.1,2.1c0.1,0,0.3,0.1,0.3,0.3c0,0.4,1.7,2.1,2.1,2.1
		c0.1,0,0.3,0.2,0.3,0.4s0.1,0.4,0.3,0.4c0.1,0,0.3,0.2,0.3,0.4c0,0.2,0.4,0.8,0.8,1.2s0.8,0.9,0.8,1c0,0.1,0.1,0.2,0.3,0.2
		c0.4,0,1,0.7,1,1.2c0,0.2,0.1,0.4,0.3,0.4c0.1,0,0.3,0.1,0.3,0.3c0,0.4,0.7,1,1,1c0.2,0,0.3,0.2,0.3,0.5c0,0.3,0.1,0.5,0.3,0.5
		c0.1,0,0.3,0.1,0.3,0.3c0,0.1,0.3,0.6,0.6,0.9c1,1,1.2,1.4,1.2,1.7c0,0.2,0.1,0.3,0.3,0.3s0.3,0.2,0.3,0.5c0,0.3,0.1,0.5,0.2,0.5
		c0.1,0,0.4,0.4,0.7,0.8c0.3,0.5,0.7,1,1,1.3c0.3,0.2,0.5,0.6,0.5,0.8c0,0.2,0.2,0.6,0.5,0.9c0.3,0.3,0.5,0.7,0.5,1
		c0,0.2,0.2,0.5,0.4,0.6c0.2,0.1,0.4,0.3,0.4,0.6c0,0.2,0.2,0.6,0.5,0.8c0.3,0.2,0.5,0.6,0.5,1c0,0.3,0.1,0.6,0.3,0.6
		c0.1,0,0.3,0.2,0.3,0.5c0,0.3,0.2,0.5,0.4,0.5c0.2,0,0.4,0.2,0.4,0.7c0,0.4,0.1,0.7,0.3,0.7c0.1,0,0.3,0.2,0.3,0.5
		c0,0.3,0.1,0.5,0.3,0.5s0.3,0.2,0.3,0.4c0,0.5,0.8,2,1.1,2c0.1,0,0.2,0.3,0.2,0.7c0,0.4,0.1,0.7,0.3,0.7c0.1,0,0.3,0.2,0.3,0.5
		c0,0.3,0.1,0.5,0.3,0.5s0.3,0.3,0.3,0.7c0,0.4,0.1,0.7,0.3,0.7c0.1,0,0.3,0.4,0.3,0.8c0,0.5,0.1,0.8,0.4,0.8c0.2,0,0.4,0.2,0.4,0.7
		c0,0.4,0.1,0.7,0.3,0.7c0.1,0,0.3,0.4,0.3,0.9c0,0.5,0.1,0.9,0.3,0.9c0.1,0,0.3,0.4,0.3,0.8c0,0.4,0.1,0.8,0.3,0.8
		c0.1,0,0.3,0.3,0.3,0.7c0,0.4,0.1,0.7,0.4,0.7c0.3,0,0.4,0.3,0.4,0.9c0,0.5,0.1,0.9,0.3,0.9c0.1,0,0.3,0.5,0.3,1
		c0,0.6,0.1,1.1,0.3,1.2c0.1,0.1,0.3,0.5,0.3,0.9c0,0.4,0.1,0.8,0.3,0.8c0.1,0,0.3,0.5,0.3,1.1c0,0.7,0.1,1.1,0.4,1.2
		c0.3,0.1,0.4,0.5,0.4,1.3c0,0.6,0.1,1.1,0.3,1.1c0.1,0,0.3,0.6,0.3,1.4c0,0.8,0.1,1.5,0.3,1.6c0.1,0.1,0.3,0.8,0.3,1.6
		c0,0.8,0.1,1.4,0.3,1.4c0.2,0,0.3,0.8,0.3,2c0,1.5,0.1,2,0.4,2.1c0.3,0.1,0.4,0.7,0.4,3.3c0,1.9,0.1,3.1,0.3,3.1
		c0.2,0,0.3,2,0.3,5.4c0,3.4-0.1,5.4-0.3,5.4c-0.2,0-0.3,1.3-0.3,3.3c0,2.7-0.1,3.3-0.4,3.3c-0.3,0-0.4,0.4-0.4,1.9
		c0,1.1-0.1,2-0.3,2.1c-0.1,0.1-0.3,0.9-0.3,1.8c0,0.9-0.1,1.7-0.3,1.7c-0.1,0-0.3,0.6-0.3,1.4s-0.1,1.4-0.3,1.4
		c-0.1,0-0.3,0.5-0.3,1.1c0,0.8-0.1,1.2-0.4,1.3c-0.2,0.1-0.4,0.5-0.4,1.1c0,0.8-0.5,1.7-0.9,1.7c-0.1,0-0.1-0.6-0.1-1.4
		c0-1.1-0.1-1.4-0.4-1.4s-0.4-0.3-0.4-1.4c0-0.8-0.1-1.4-0.3-1.4c-0.1,0-0.3-0.5-0.3-1.2s-0.1-1.2-0.3-1.2c-0.1,0-0.3-0.5-0.3-1.2
		s-0.1-1.2-0.3-1.2c-0.1,0-0.3-0.4-0.3-0.9s-0.1-0.9-0.3-0.9c-0.1,0-0.3-0.4-0.3-0.9c0-0.5-0.2-1.1-0.4-1.3c-0.2-0.2-0.4-0.7-0.4-1
		c0-0.4-0.1-0.7-0.3-0.8c-0.1-0.1-0.3-0.5-0.3-0.9c0-0.4-0.1-0.8-0.3-0.8s-0.3-0.3-0.3-0.8c0-0.4-0.1-0.8-0.3-0.9
		c-0.1-0.1-0.3-0.4-0.3-0.7c0-0.3-0.2-0.6-0.4-0.7c-0.2-0.1-0.4-0.5-0.4-0.9c0-0.4-0.1-0.8-0.3-0.8c-0.1,0-0.3-0.4-0.3-0.9
		c0-0.5-0.1-0.9-0.3-0.9s-0.3-0.2-0.3-0.5s-0.1-0.6-0.3-0.7c-0.1-0.1-0.3-0.4-0.3-0.7s-0.2-0.5-0.4-0.5c-0.3,0-0.4-0.3-0.4-0.9
		c0-0.5-0.1-0.9-0.3-0.9c-0.1,0-0.3-0.2-0.3-0.5c0-0.3-0.1-0.5-0.3-0.5c-0.1,0-0.3-0.3-0.3-0.7c0-0.4-0.1-0.7-0.3-0.7
		c-0.1,0-0.3-0.2-0.3-0.5c0-0.3-0.2-0.5-0.4-0.5c-0.2,0-0.4-0.2-0.4-0.7c0-0.4-0.1-0.7-0.3-0.7c-0.1,0-0.3-0.2-0.3-0.5
		c0-0.3-0.1-0.5-0.3-0.5c-0.1,0-0.3-0.3-0.3-0.7c0-0.4-0.1-0.7-0.3-0.7s-0.3-0.2-0.3-0.4s-0.2-0.5-0.4-0.6c-0.2-0.1-0.4-0.4-0.4-0.8
		c0-0.3-0.1-0.6-0.3-0.6c-0.1,0-0.3-0.2-0.3-0.5c0-0.3-0.2-0.6-0.5-0.8c-0.3-0.2-0.5-0.6-0.5-1c0-0.4-0.2-0.6-0.4-0.6
		c-0.2,0-0.4-0.2-0.4-0.5c0-0.3-0.1-0.5-0.3-0.5c-0.1,0-0.3-0.2-0.3-0.4c0-0.2-0.1-0.4-0.3-0.4c-0.1,0-0.3-0.2-0.3-0.5
		c0-0.3-0.1-0.5-0.3-0.5c-0.1,0-0.3-0.2-0.3-0.4c0-0.2-0.3-0.7-0.7-1c-0.4-0.4-0.7-0.8-0.7-1.1s-0.1-0.4-0.3-0.4
		c-0.1,0-0.3-0.1-0.3-0.3c0-0.3-0.3-0.6-1.2-1.7c-0.3-0.3-0.6-0.8-0.6-0.9s-0.1-0.3-0.3-0.3c-0.1,0-0.3-0.2-0.3-0.4
		c0-0.5-0.6-1.2-1-1.2c-0.2,0-0.3-0.2-0.3-0.4c0-0.2-0.1-0.4-0.3-0.4c-0.1,0-0.3-0.2-0.3-0.5c0-0.3-0.2-0.6-0.5-0.8
		c-0.3-0.2-0.5-0.5-0.5-0.7s-0.2-0.3-0.4-0.3c-0.2,0-0.4-0.2-0.4-0.5c0-0.3-0.2-0.6-0.5-0.8c-0.3-0.2-0.5-0.5-0.5-0.6
		c0-0.3-0.7-1-0.9-1c-0.3,0-1.4-1.3-1.4-1.6c0-0.2-0.4-0.8-1-1.3c-0.5-0.5-1.2-1.2-1.5-1.6c-0.3-0.4-0.6-0.7-0.8-0.7
		c-0.2,0-0.7-0.5-1.6-1.7c-0.3-0.4-0.6-0.7-0.8-0.7c-0.1,0-0.6-0.4-1-0.9c-0.4-0.5-0.9-0.9-1.1-0.9c-0.3,0-1.6-1.1-1.6-1.4
		c0-0.3-0.7-0.9-1-0.9c-0.2,0-0.3-0.1-0.3-0.3c0-0.1-0.2-0.3-0.4-0.3c-0.2,0-0.9-0.5-1.5-1.2c-0.6-0.6-1.3-1.2-1.6-1.2
		c-0.2,0-0.4-0.1-0.4-0.3c0-0.1-0.2-0.3-0.4-0.3s-0.4-0.1-0.4-0.3c0-0.4-0.7-1-1.2-1c-0.2,0-0.4-0.1-0.4-0.3s-0.2-0.3-0.4-0.3
		c-0.2,0-0.4-0.1-0.4-0.3c0-0.1-0.2-0.3-0.5-0.3c-0.3,0-0.5-0.1-0.5-0.3c0-0.4-0.8-1-1.3-1c-0.2,0-0.6-0.2-0.8-0.5
		c-0.2-0.3-0.5-0.5-0.7-0.5s-0.6-0.3-1-0.7c-0.3-0.4-0.8-0.7-1-0.7c-0.2,0-0.4-0.1-0.4-0.3c0-0.1-0.3-0.3-0.7-0.3
		c-0.4,0-0.7-0.1-0.7-0.3c0-0.1-0.2-0.3-0.5-0.3c-0.3,0-0.5-0.2-0.5-0.4c0-0.2-0.2-0.4-0.4-0.4c-0.2,0-0.4-0.1-0.4-0.3
		c0-0.1-0.2-0.3-0.5-0.3c-0.3,0-0.5-0.1-0.5-0.3c0-0.1-0.2-0.3-0.5-0.3c-0.3,0-0.5-0.1-0.5-0.3c0-0.1-0.3-0.3-0.7-0.3
		c-0.4,0-0.7-0.1-0.7-0.4c0-0.2-0.2-0.4-0.5-0.4s-0.6-0.1-0.7-0.3S320,62,319.7,62c-0.3,0-0.5-0.1-0.5-0.3c0-0.1-0.2-0.3-0.5-0.3
		c-0.3,0-0.5-0.1-0.5-0.3c0-0.1-0.3-0.3-0.7-0.3c-0.4,0-0.7-0.1-0.7-0.4c0-0.2-0.2-0.4-0.5-0.4c-0.3,0-0.6-0.1-0.7-0.3
		c-0.1-0.1-0.4-0.3-0.7-0.3s-0.5-0.1-0.5-0.3c0-0.1-0.3-0.3-0.7-0.3c-0.4,0-0.7-0.1-0.7-0.3c0-0.1-0.3-0.3-0.8-0.3
		c-0.4,0-0.8-0.2-0.9-0.4c-0.1-0.2-0.4-0.4-0.7-0.4s-0.5-0.1-0.5-0.3c0-0.1-0.4-0.3-0.8-0.3c-0.4,0-0.8-0.1-0.8-0.3
		c0-0.1-0.3-0.3-0.7-0.3c-0.4,0-0.7-0.1-0.7-0.3c0-0.1-0.4-0.3-0.9-0.3c-0.6,0-0.9-0.1-0.9-0.4c0-0.2-0.2-0.4-0.5-0.4
		c-0.3,0-0.6-0.1-0.7-0.3c-0.1-0.1-0.5-0.3-0.9-0.3s-0.8-0.1-0.8-0.3c0-0.1-0.4-0.3-0.9-0.3c-0.5,0-0.9-0.1-0.9-0.3
		c0-0.1-0.4-0.3-0.8-0.3c-0.4,0-0.8-0.1-0.8-0.3c0-0.1-0.4-0.3-0.9-0.3c-0.6,0-0.9-0.1-0.9-0.4c0-0.3-0.3-0.4-0.9-0.4
		c-0.5,0-0.9-0.1-0.9-0.3c0-0.1-0.4-0.3-0.9-0.3c-0.5,0-0.9-0.1-0.9-0.3c0-0.1-0.5-0.3-1.2-0.3s-1.2-0.1-1.2-0.3s-0.3-0.3-0.8-0.3
		c-0.4,0-0.8-0.2-0.9-0.4c-0.1-0.3-0.5-0.4-1.2-0.4c-0.6,0-1.1-0.1-1.1-0.3c0-0.1-0.5-0.3-1.2-0.3s-1.2-0.1-1.2-0.3
		c0-0.1-0.5-0.3-1.2-0.3s-1.2-0.1-1.2-0.3s-0.5-0.3-1.1-0.3c-0.8,0-1.2-0.1-1.3-0.4c-0.1-0.3-0.5-0.4-1.5-0.4
		c-0.7,0-1.3-0.1-1.3-0.3c0-0.1-0.6-0.3-1.3-0.3s-1.3-0.1-1.3-0.3c0-0.1-0.6-0.3-1.4-0.3c-0.8,0-1.4-0.1-1.4-0.3
		c0-0.1-0.7-0.3-1.7-0.3c-1.3,0-1.7-0.1-1.7-0.4c0-0.3-0.4-0.4-1.8-0.4c-1,0-1.8-0.1-1.8-0.3c0-0.1-0.7-0.3-1.7-0.3
		c-1,0-1.7-0.1-1.7-0.3c0-0.2-0.8-0.3-1.8-0.3c-1,0-1.8-0.1-1.8-0.3c0-0.2-0.8-0.3-1.9-0.3c-1.5,0-2-0.1-2.1-0.4
		c-0.1-0.3-0.6-0.4-2.4-0.4c-1.2,0-2.3-0.1-2.4-0.3c-0.1-0.1-1.3-0.3-2.8-0.3c-1.6,0-2.6-0.1-2.6-0.3c0-0.2-1.1-0.3-2.9-0.3
		c-1.7,0-2.9-0.1-2.9-0.3c0-0.2-1.3-0.3-3.3-0.3c-2.7,0-3.3-0.1-3.3-0.4c0-0.3-0.6-0.4-3.8-0.4c-2.4,0-3.8-0.1-3.8-0.3
		c0-0.2-1.7-0.3-4.7-0.3c-3,0-4.7-0.1-4.7-0.3c0-0.2-2.3-0.3-6.4-0.3s-6.4-0.1-6.4-0.3c0-0.4-57.8-0.4-58.2,0c-0.2,0.2-1,0.2-2,0.2
		l-1.8-0.1l0.5-0.6c0.3-0.3,0.8-0.6,1.1-0.6c0.3,0,0.6-0.1,0.6-0.3c0-0.1,0.2-0.3,0.5-0.3c0.3,0,0.5-0.1,0.5-0.3s0.2-0.3,0.5-0.3
		c0.3,0,0.6-0.2,0.7-0.4c0.1-0.2,0.5-0.4,0.9-0.4c0.4,0,0.8-0.1,0.8-0.3s0.2-0.3,0.5-0.3s0.6-0.1,0.7-0.3c0.1-0.1,0.4-0.3,0.7-0.3
		c0.3,0,0.5-0.1,0.5-0.3c0-0.1,0.3-0.3,0.7-0.3c0.4,0,0.7-0.1,0.7-0.4c0-0.2,0.2-0.4,0.5-0.4c0.3,0,0.5-0.1,0.5-0.3s0.4-0.3,0.9-0.3
		c0.5,0,0.9-0.1,0.9-0.3s0.2-0.3,0.5-0.3c0.3,0,0.6-0.1,0.7-0.3c0.1-0.1,0.4-0.3,0.7-0.3c0.3,0,0.5-0.2,0.5-0.4
		c0-0.3,0.3-0.4,0.9-0.4c0.5,0,0.9-0.1,0.9-0.3c0-0.1,0.4-0.3,0.8-0.3c0.4,0,0.8-0.1,0.8-0.3c0-0.1,0.3-0.3,0.7-0.3
		c0.4,0,0.7-0.1,0.7-0.3c0-0.1,0.4-0.3,0.8-0.3c0.5,0,0.9-0.2,0.9-0.4c0.1-0.2,0.5-0.4,0.9-0.4c0.4,0,0.8-0.1,0.8-0.3
		c0-0.1,0.3-0.3,0.7-0.3c0.4,0,0.7-0.1,0.7-0.3c0-0.1,0.4-0.3,0.9-0.3c0.5,0,0.9-0.1,0.9-0.3c0-0.1,0.4-0.3,0.8-0.3
		c0.5,0,0.8-0.1,0.8-0.4c0-0.3,0.3-0.4,1.2-0.4c0.6,0,1.2-0.1,1.2-0.3c0-0.1,0.4-0.3,0.9-0.3c0.5,0,0.9-0.1,0.9-0.3
		c0-0.1,0.4-0.3,0.9-0.3c0.5,0,0.9-0.1,0.9-0.3c0-0.1,0.5-0.3,1-0.3s1.1-0.1,1.2-0.3c0.1-0.1,0.5-0.3,0.9-0.3c0.4,0,0.8-0.2,0.9-0.4
		c0.1-0.3,0.5-0.4,1.2-0.4c0.6,0,1.1-0.1,1.2-0.3s0.6-0.3,1.2-0.3c0.6,0,1.1-0.1,1.2-0.3c0.1-0.1,0.6-0.3,1.2-0.3
		c0.6,0,1.1-0.1,1.2-0.3c0.1-0.1,0.6-0.3,1.2-0.3c0.7,0,1.1-0.1,1.2-0.4c0.1-0.3,0.5-0.4,1.6-0.4c0.8,0,1.4-0.1,1.4-0.3
		c0-0.1,0.6-0.3,1.4-0.3s1.4-0.1,1.4-0.3c0-0.1,0.6-0.3,1.3-0.3c0.7,0,1.4-0.1,1.5-0.3c0.1-0.1,0.8-0.3,1.6-0.3c1,0,1.5-0.1,1.6-0.4
		c0.1-0.3,0.6-0.4,1.8-0.4c0.9,0,1.7-0.1,1.7-0.3c0-0.1,0.7-0.3,1.7-0.3c1,0,1.7-0.1,1.7-0.3c0-0.2,0.9-0.3,2.1-0.3s2.1-0.1,2.1-0.3
		c0-0.2,0.9-0.3,2.2-0.3c1.7,0,2.3-0.1,2.4-0.4c0.1-0.3,0.7-0.4,2.7-0.4c1.5,0,2.6-0.1,2.6-0.3c0-0.2,1.3-0.3,3.3-0.3
		c2,0,3.3-0.1,3.3-0.3c0-0.2,1.7-0.3,4.4-0.3c2.8,0,4.4-0.1,4.4-0.3c0-0.2,7.1-0.3,20.8-0.3C269.6,15.7,276.9,15.8,277,15.9
		 M198.3,55.8c0.1,0.3,1.3,0.4,8.3,0.4c5.2,0,8.1,0.1,8.1,0.3c0,0.2,2,0.3,5.4,0.3s5.4,0.1,5.4,0.3c0,0.2,1.4,0.3,3.8,0.3
		c2.4,0,3.8,0.1,3.8,0.3c0,0.2,1.3,0.3,3.3,0.3c2.7,0,3.3,0.1,3.3,0.4c0,0.3,0.5,0.4,2.6,0.4c1.6,0,2.6,0.1,2.6,0.3
		c0,0.2,1,0.3,2.4,0.3c1.4,0,2.4,0.1,2.4,0.3c0,0.2,0.9,0.3,2.1,0.3s2.1,0.1,2.1,0.3c0,0.2,0.8,0.3,1.9,0.3c1.5,0,2,0.1,2.1,0.4
		c0.1,0.3,0.6,0.4,1.9,0.4c1,0,1.7,0.1,1.7,0.3c0,0.1,0.7,0.3,1.7,0.3c1,0,1.7,0.1,1.7,0.3c0,0.1,0.7,0.3,1.6,0.3
		c0.9,0,1.6,0.1,1.6,0.3c0,0.1,0.6,0.3,1.4,0.3c1.1,0,1.4,0.1,1.4,0.4c0,0.3,0.3,0.4,1.2,0.4c0.6,0,1.2,0.1,1.2,0.3
		c0,0.1,0.6,0.3,1.4,0.3c0.8,0,1.4,0.1,1.4,0.3c0,0.1,0.5,0.3,1.2,0.3c0.6,0,1.2,0.1,1.2,0.3c0,0.1,0.5,0.3,1.1,0.3
		c0.8,0,1.2,0.1,1.3,0.4c0.1,0.3,0.5,0.4,1.2,0.4c0.6,0,1.1,0.1,1.1,0.3c0,0.1,0.4,0.3,0.9,0.3c0.5,0,0.9,0.1,0.9,0.3
		c0,0.1,0.5,0.3,1.2,0.3s1.2,0.1,1.2,0.3c0,0.1,0.3,0.3,0.8,0.3c0.4,0,0.8,0.2,0.9,0.4c0.1,0.2,0.5,0.4,0.9,0.4
		c0.4,0,0.8,0.1,0.9,0.3c0.1,0.1,0.5,0.3,0.9,0.3c0.4,0,0.8,0.1,0.8,0.3c0,0.1,0.4,0.3,0.9,0.3c0.5,0,0.9,0.1,0.9,0.3
		c0,0.1,0.3,0.3,0.8,0.3c0.4,0,0.8,0.2,0.9,0.4c0.1,0.2,0.5,0.4,0.9,0.4c0.4,0,0.8,0.1,0.8,0.3c0,0.1,0.4,0.3,0.9,0.3
		c0.5,0,0.9,0.1,0.9,0.3s0.2,0.3,0.5,0.3c0.3,0,0.5,0.1,0.5,0.3c0,0.1,0.4,0.3,0.9,0.3c0.6,0,0.9,0.1,0.9,0.4c0,0.2,0.2,0.4,0.7,0.4
		c0.4,0,0.7,0.1,0.7,0.3c0,0.1,0.2,0.3,0.5,0.3c0.3,0,0.5,0.1,0.5,0.3c0,0.1,0.4,0.3,0.9,0.3c0.5,0,0.9,0.1,0.9,0.3s0.2,0.3,0.5,0.3
		s0.6,0.2,0.6,0.4c0.1,0.2,0.4,0.4,0.7,0.4c0.3,0,0.5,0.1,0.5,0.3c0,0.1,0.2,0.3,0.5,0.3s0.5,0.1,0.5,0.3c0,0.1,0.3,0.3,0.7,0.3
		c0.4,0,0.7,0.1,0.7,0.3c0,0.1,0.2,0.3,0.5,0.3c0.3,0,0.6,0.2,0.6,0.4c0.1,0.2,0.4,0.4,0.7,0.4c0.3,0,0.5,0.1,0.5,0.3
		c0,0.1,0.2,0.3,0.5,0.3s0.5,0.1,0.5,0.3c0,0.1,0.3,0.3,0.7,0.3c0.4,0,0.7,0.1,0.7,0.3s0.2,0.3,0.4,0.3c0.2,0,0.7,0.3,1,0.7
		c0.3,0.4,0.8,0.7,1,0.7c0.2,0,0.4,0.1,0.4,0.3c0,0.1,0.2,0.3,0.5,0.3c0.3,0,0.5,0.1,0.5,0.3c0,0.1,0.2,0.3,0.4,0.3
		c0.2,0,0.4,0.1,0.4,0.3c0,0.1,0.2,0.3,0.5,0.3c0.3,0,0.5,0.2,0.5,0.4c0,0.2,0.2,0.4,0.6,0.4c0.3,0,0.8,0.2,1,0.5
		c0.2,0.3,0.6,0.5,0.8,0.5c0.3,0,0.5,0.1,0.5,0.3c0,0.1,0.2,0.3,0.4,0.3c0.2,0,0.4,0.1,0.4,0.3c0,0.4,0.7,1,1.2,1
		c0.2,0,0.4,0.1,0.4,0.3c0,0.1,0.1,0.3,0.3,0.3c0.2,0,0.6,0.3,0.8,0.7c0.3,0.4,0.7,0.7,0.8,0.7c0.2,0,0.4,0.1,0.4,0.3
		c0,0.1,0.1,0.3,0.3,0.3c0.2,0,0.7,0.4,1.1,0.9s0.9,0.9,1.1,0.9c0.4,0,9.2,8.8,9.2,9.1c0,0.1,0.1,0.3,0.3,0.3c0.4,0,1.6,1.2,1.6,1.6
		c0,0.2,0.5,0.8,1.2,1.4c0.6,0.6,1.2,1.3,1.2,1.5c0,0.4,0.6,1.3,0.9,1.3c0.4,0,0.9,0.8,0.9,1.2c0,0.3,0.2,0.7,0.5,0.9
		c0.3,0.2,0.5,0.6,0.5,0.8c0,0.2,0.3,0.6,0.7,0.9c0.4,0.3,0.7,0.7,0.7,1c0,0.3,0.1,0.5,0.3,0.5c0.1,0,0.3,0.2,0.3,0.5
		c0,0.6,0.6,1.4,1,1.4c0.2,0,0.3,0.3,0.3,0.7c0,0.4,0.1,0.7,0.3,0.7c0.1,0,0.3,0.2,0.3,0.5c0,0.3,0.1,0.5,0.3,0.5
		c0.1,0,0.3,0.2,0.3,0.5c0,0.3,0.1,0.5,0.3,0.5c0.1,0,0.3,0.2,0.3,0.4c0,0.2,0.2,0.4,0.4,0.4c0.2,0,0.4,0.2,0.4,0.5
		c0,0.3,0.1,0.5,0.3,0.5c0.1,0,0.3,0.3,0.3,0.7c0,0.4,0.1,0.7,0.3,0.7c0.1,0,0.3,0.2,0.3,0.5c0,0.3,0.1,0.5,0.3,0.5
		c0.1,0,0.3,0.3,0.3,0.7c0,0.4,0.1,0.7,0.4,0.7c0.2,0,0.4,0.2,0.4,0.5c0,0.3,0.1,0.5,0.3,0.5c0.1,0,0.3,0.3,0.3,0.7
		c0,0.4,0.1,0.7,0.3,0.7c0.1,0,0.3,0.4,0.3,0.8c0,0.4,0.1,0.8,0.3,0.8c0.1,0,0.3,0.3,0.3,0.7c0,0.4,0.1,0.7,0.4,0.7
		c0.2,0,0.4,0.2,0.4,0.7c0,0.4,0.1,0.7,0.3,0.7c0.1,0,0.3,0.4,0.3,0.8c0,0.4,0.1,0.8,0.3,0.8c0.1,0,0.3,0.3,0.3,0.7
		c0,0.4,0.1,0.7,0.3,0.7c0.1,0,0.3,0.4,0.3,0.8c0,0.4,0.1,0.8,0.3,0.8s0.3,0.4,0.3,0.8c0,0.5,0.2,0.9,0.4,0.9c0.2,0.1,0.4,0.5,0.4,1
		c0,0.5,0.1,0.9,0.3,0.9c0.1,0,0.3,0.4,0.3,0.9c0,0.5,0.1,0.9,0.3,0.9c0.1,0,0.3,0.4,0.3,0.8c0,0.4,0.1,0.8,0.3,0.8
		c0.1,0,0.3,0.4,0.3,0.9c0,0.6,0.1,0.9,0.4,0.9c0.3,0,0.4,0.3,0.4,1.2c0,0.6,0.1,1.2,0.3,1.2c0.1,0,0.3,0.5,0.3,1.2s0.1,1.2,0.3,1.2
		c0.1,0,0.3,0.6,0.3,1.4c0,0.8,0.1,1.4,0.3,1.4c0.1,0,0.3,0.7,0.3,1.4c0,1,0.1,1.5,0.4,1.6c0.3,0.1,0.4,0.6,0.4,2.1
		c0,1.1,0.1,1.9,0.3,1.9c0.2,0,0.3,1,0.3,2.6c0,1.5,0.1,2.7,0.3,2.8c0.2,0.1,0.3,2.3,0.3,5.8c0,3.6-0.1,5.6-0.3,5.6
		c-0.2,0-0.3,1-0.3,2.6c0,1.6-0.1,2.6-0.3,2.6c-0.1,0-0.3,0.6-0.3,1.4s-0.1,1.4-0.2,1.4c-0.1,0-0.4,0.4-0.7,0.9
		c-0.3,0.5-0.6,0.9-0.7,0.9s-0.2,0.2-0.2,0.5c0,0.3-0.3,0.7-0.7,1c-0.4,0.3-0.7,0.7-0.7,0.9c0,0.2-0.2,0.6-0.5,0.8
		c-0.3,0.2-0.5,0.5-0.5,0.7c0,0.2-0.1,0.3-0.3,0.3c-0.1,0-0.3,0.2-0.3,0.5c0,0.3-0.1,0.5-0.3,0.5c-0.4,0-1,0.7-1,1
		c0,0.2-0.1,0.3-0.3,0.3c-0.1,0-0.3,0.2-0.3,0.4c0,0.2-0.5,0.9-1.2,1.5s-1.2,1.3-1.2,1.5s-0.2,0.5-0.5,0.7c-0.3,0.2-0.5,0.5-0.5,0.7
		c0,0.2-0.1,0.3-0.3,0.3c-0.3,0-2.1,1.8-2.1,2.1c0,0.1-0.3,0.3-0.7,0.5c-0.4,0.2-0.7,0.6-0.7,0.8c0,0.3-0.1,0.5-0.3,0.5
		c-0.1,0-0.3,0.1-0.3,0.3c0,0.3-0.6,1-0.9,1c-0.2,0-1.4,1.2-1.4,1.4c0,0.2-0.7,0.9-0.9,0.9c-0.3,0-1.4,1.3-1.4,1.6
		c0,0.2-0.2,0.3-0.5,0.3c-0.5,0-2.4,1.6-2.4,2.1c0,0.2-0.1,0.3-0.3,0.3c-0.2,0-0.6,0.4-1,0.8c-0.4,0.4-0.9,0.8-1.1,0.8
		c-0.2,0-0.8,0.5-1.4,1.2c-0.6,0.6-1.3,1.2-1.5,1.2c-0.2,0-0.7,0.4-1.1,0.9c-0.4,0.5-0.9,0.9-1.1,0.9c-0.2,0-0.3,0.1-0.3,0.3
		c0,0.1-0.2,0.3-0.4,0.3c-0.5,0-1.2,0.6-1.2,1c0,0.2-0.2,0.3-0.5,0.3s-0.9,0.4-1.3,0.8c-0.4,0.4-0.9,0.8-1.1,0.8
		c-0.2,0-0.6,0.3-0.9,0.7c-0.3,0.4-0.7,0.7-0.9,0.7c-0.2,0-0.7,0.2-1,0.5c-0.3,0.3-0.7,0.5-1,0.5c-0.2,0-0.4,0.2-0.4,0.4
		c0,0.2-0.2,0.4-0.6,0.4c-0.3,0-0.8,0.2-1,0.5c-0.2,0.3-0.5,0.5-0.7,0.5c-0.4,0-1.6,0.7-2.2,1.4c-0.2,0.3-0.7,0.5-1,0.5
		c-0.3,0-0.6,0.1-0.6,0.3c0,0.1-0.2,0.3-0.5,0.3c-0.3,0-0.5,0.1-0.5,0.2c0,0.1-0.3,0.3-0.7,0.4c-0.4,0.1-0.7,0.3-0.7,0.4
		c0,0.1-0.2,0.3-0.5,0.3c-0.3,0-0.5,0.1-0.5,0.3c0,0.1-0.2,0.3-0.4,0.3c-0.2,0-0.4,0.1-0.4,0.3c0,0.1-0.2,0.3-0.5,0.3
		c-0.3,0-0.5,0.1-0.5,0.3s-0.2,0.3-0.5,0.3c-0.3,0-0.6,0.2-0.7,0.4c-0.1,0.2-0.4,0.4-0.6,0.4s-0.5,0.1-0.5,0.3
		c0,0.1-0.2,0.3-0.5,0.3c-0.3,0-0.5,0.1-0.5,0.3s-0.4,0.3-0.9,0.3s-0.9,0.1-0.9,0.2c0,0.1-0.3,0.3-0.7,0.4c-0.4,0.1-0.7,0.3-0.7,0.4
		c0,0.1-0.2,0.3-0.5,0.3s-0.5,0.1-0.5,0.3s-0.3,0.3-0.7,0.3c-0.4,0-0.7,0.1-0.7,0.3s-0.4,0.3-0.8,0.3c-0.4,0-0.8,0.1-0.8,0.3
		c0,0.1-0.2,0.3-0.5,0.3c-0.3,0-0.6,0.2-0.7,0.4c-0.1,0.2-0.4,0.4-0.6,0.4c-0.3,0-0.5,0.1-0.5,0.3s-0.4,0.3-0.9,0.3
		c-0.5,0-0.9,0.1-0.9,0.3s-0.3,0.3-0.8,0.3c-0.4,0-0.8,0.1-0.9,0.3c-0.1,0.1-0.4,0.3-0.7,0.3s-0.5,0.2-0.5,0.4
		c0,0.3-0.3,0.4-0.9,0.4c-0.5,0-0.9,0.1-0.9,0.3s-0.4,0.3-0.9,0.3c-0.5,0-0.9,0.1-0.9,0.3c0,0.1-0.3,0.3-0.8,0.3
		c-0.4,0-0.8,0.1-0.9,0.3c-0.1,0.1-0.5,0.3-0.8,0.3c-0.4,0-0.7,0.2-0.8,0.4c-0.1,0.2-0.5,0.4-1,0.4c-0.5,0-0.9,0.1-0.9,0.3
		c0,0.1-0.4,0.3-0.9,0.3c-0.5,0-0.9,0.1-0.9,0.3c0,0.1-0.5,0.3-1.2,0.3s-1.2,0.1-1.2,0.3c0,0.1-0.4,0.3-0.9,0.3
		c-0.5,0-1.1,0.2-1.3,0.4c-0.2,0.2-0.8,0.4-1.2,0.4c-0.4,0-0.8,0.1-0.8,0.3c0,0.1-0.5,0.3-1.2,0.3s-1.2,0.1-1.2,0.3
		c0,0.1-0.6,0.3-1.3,0.3c-0.7,0-1.4,0.1-1.5,0.3c-0.1,0.1-0.6,0.3-1.2,0.3c-0.7,0-1.1,0.1-1.2,0.4c-0.1,0.3-0.5,0.4-1.6,0.4
		c-0.8,0-1.4,0.1-1.4,0.3c0,0.1-0.6,0.3-1.4,0.3c-0.8,0-1.4,0.1-1.4,0.3c0,0.1-0.6,0.3-1.4,0.3c-0.8,0-1.4,0.1-1.4,0.3
		c0,0.1-0.7,0.3-1.7,0.3c-1.3,0-1.7,0.1-1.9,0.4c-0.1,0.3-0.6,0.4-1.8,0.4c-0.9,0-1.7,0.1-1.7,0.3c0,0.2-1,0.3-2.4,0.3
		c-1.4,0-2.4,0.1-2.4,0.3c0,0.2-1,0.3-2.4,0.3c-1.4,0-2.4,0.1-2.4,0.3c0,0.2-1.1,0.3-2.9,0.3c-2.3,0-2.9,0.1-3,0.4
		c-0.1,0.3-0.8,0.4-3.7,0.4c-2.2,0-3.5,0.1-3.5,0.3c0,0.2-1.9,0.3-5.2,0.3c-3.3,0-5.2,0.1-5.2,0.3c0,0.2-6.4,0.3-18.6,0.3
		c-12.2,0-18.6-0.1-18.6-0.3c0-0.2-1.7-0.3-4.7-0.3c-3,0-4.7-0.1-4.7-0.3c0-0.2-1-0.3-2.6-0.3c-2.1,0-2.6-0.1-2.7-0.4
		c-0.1-0.3-0.7-0.4-2.6-0.4c-1.4,0-2.5-0.1-2.6-0.3c-0.1-0.1-1.2-0.3-2.4-0.3c-1.3,0-2.2-0.1-2.2-0.3c0-0.2-1-0.3-2.4-0.3
		c-1.4,0-2.4-0.1-2.4-0.3c0-0.2-0.9-0.3-2.1-0.3c-1.7,0-2.1-0.1-2.1-0.4c0-0.3-0.4-0.4-1.7-0.4c-0.9,0-1.8-0.1-1.8-0.3
		c-0.1-0.1-1-0.3-2.1-0.3c-1.1,0-1.9-0.1-1.9-0.3c0-0.1-0.8-0.3-1.8-0.3c-1,0-1.8-0.1-1.8-0.3c0-0.1-0.6-0.3-1.4-0.3
		c-1,0-1.5-0.1-1.6-0.4c-0.1-0.3-0.5-0.4-1.5-0.4c-0.7,0-1.4-0.1-1.5-0.3c-0.1-0.1-0.7-0.3-1.4-0.3s-1.3-0.1-1.4-0.3
		c-0.1-0.1-0.7-0.3-1.3-0.3c-0.6,0-1.2-0.1-1.2-0.3c0-0.1-0.4-0.3-0.9-0.3c-0.5,0-1.1-0.2-1.3-0.4s-0.8-0.4-1.3-0.4
		c-0.5,0-1-0.1-1-0.3c-0.1-0.1-0.6-0.3-1.2-0.3c-0.6,0-1-0.1-1-0.3c0-0.1-0.4-0.3-0.9-0.3c-0.5,0-0.9-0.1-0.9-0.3
		c0-0.1-0.4-0.3-0.9-0.3c-0.6,0-0.9-0.1-0.9-0.4s-0.3-0.4-0.9-0.4c-0.5,0-0.9-0.1-0.9-0.3c0-0.1-0.2-0.3-0.5-0.3
		c-0.3,0-0.5-0.1-0.5-0.3c0-0.1-0.4-0.3-0.9-0.3s-0.9-0.1-0.9-0.3s-0.2-0.3-0.5-0.3c-0.3,0-0.6-0.2-0.6-0.4
		c-0.1-0.2-0.4-0.4-0.7-0.4s-0.5-0.1-0.5-0.3c0-0.1-0.4-0.3-0.9-0.3c-0.5,0-0.9-0.1-0.9-0.3s-0.2-0.3-0.4-0.3s-0.7-0.3-1.1-0.7
		c-0.4-0.4-0.8-0.7-1-0.7c-0.2,0-0.4-0.1-0.4-0.3c0-0.1-0.2-0.3-0.5-0.3c-0.3,0-0.5-0.1-0.5-0.3s-0.3-0.3-0.6-0.3
		c-0.3,0-0.8-0.3-1.1-0.7c-0.3-0.4-0.7-0.7-0.8-0.7c-0.2,0-0.4-0.1-0.4-0.3s-0.2-0.3-0.3-0.3s-0.5-0.2-0.7-0.5
		c-0.2-0.3-0.5-0.5-0.7-0.5c-0.4,0-7.7-7.2-7.7-7.6c0-0.1-0.4-0.7-0.9-1.2c-0.5-0.5-0.9-1.1-0.9-1.3c0-0.5-0.6-1.2-1-1.2
		c-0.2,0-0.3-0.2-0.3-0.5c0-0.3-0.1-0.5-0.3-0.5c-0.1,0-0.3-0.2-0.3-0.4s-0.1-0.4-0.3-0.4c-0.1,0-0.3-0.2-0.3-0.5
		c0-0.3-0.1-0.5-0.2-0.5s-0.3-0.3-0.4-0.7c-0.1-0.4-0.3-0.7-0.4-0.7s-0.3-0.2-0.3-0.5c0-0.3-0.1-0.5-0.3-0.5c-0.1,0-0.3-0.2-0.3-0.5
		c0-0.3-0.1-0.6-0.3-0.7c-0.1-0.1-0.3-0.4-0.3-0.7c0-0.3-0.1-0.5-0.3-0.5c-0.1,0-0.3-0.2-0.3-0.5c0-0.3-0.2-0.6-0.4-0.7
		c-0.2-0.1-0.4-0.4-0.4-0.6s-0.1-0.5-0.3-0.5c-0.1,0-0.3-0.4-0.3-0.9c0-0.5-0.1-0.9-0.3-0.9c-0.1,0-0.3-0.2-0.3-0.5
		c0-0.3-0.1-0.5-0.3-0.5c-0.1,0-0.3-0.4-0.3-0.8c0-0.5-0.2-0.9-0.4-0.9c-0.2-0.1-0.4-0.5-0.4-1c0-0.5-0.1-0.9-0.3-0.9
		c-0.1,0-0.3-0.4-0.3-0.9s-0.1-0.9-0.3-0.9c-0.1,0-0.3-0.5-0.3-1.2s-0.1-1.2-0.3-1.2c-0.1,0-0.3-0.5-0.3-1.1c0-0.7-0.1-1.1-0.4-1.2
		c-0.3-0.1-0.4-0.5-0.4-1.3c0-0.6-0.1-1.1-0.3-1.1c-0.1,0-0.3-0.6-0.3-1.4c0-0.8-0.1-1.4-0.3-1.4c-0.1,0-0.3-0.7-0.3-1.7
		c0-1-0.1-1.7-0.3-1.7c-0.2,0-0.3-0.8-0.3-2c0-1.5-0.1-2-0.4-2.1c-0.3-0.1-0.4-0.6-0.4-2.5c0-1.4-0.1-2.3-0.3-2.3
		c-0.2,0-0.3-1-0.3-2.6c0-1.6-0.1-2.6-0.3-2.6c-0.2,0-0.3-1.4-0.3-3.5c0-2.2-0.1-3.5-0.3-3.5c-0.2,0-0.3-1.5-0.3-4.1
		c0-3.4-0.1-4.1-0.4-4.2c-0.6-0.2-0.6-22.7,0-22.9c0.3-0.1,0.4-0.7,0.4-3.3c0-1.9,0.1-3.1,0.3-3.1c0.2,0,0.3-1,0.3-2.4
		c0-1.4,0.1-2.4,0.3-2.4c0.1,0,0.3-0.8,0.3-1.8c0-1,0.1-1.8,0.3-1.8c0.1,0,0.3-0.6,0.3-1.4c0-1,0.1-1.5,0.4-1.6
		c0.3-0.1,0.4-0.5,0.4-1.5c0-0.7,0.1-1.3,0.3-1.3s0.3-0.5,0.3-1.2c0-0.6,0.1-1.2,0.3-1.3c0.1-0.1,0.3-0.6,0.3-1.2s0.1-1,0.3-1
		c0.1,0,0.3-0.5,0.3-1.2c0-0.9,0.1-1.2,0.4-1.2c0.3,0,0.4-0.3,0.4-0.9c0-0.5,0.1-0.9,0.3-0.9c0.1,0,0.3-0.4,0.3-0.9
		c0-0.5,0.1-0.9,0.3-0.9c0.1,0,0.3-0.4,0.3-0.8c0-0.4,0.1-0.8,0.3-0.8c0.1,0,0.3-0.2,0.3-0.5c0-0.3,0.2-0.7,0.4-0.9
		c0.2-0.2,0.4-0.7,0.4-1c0-0.4,0.1-0.6,0.3-0.6c0.1,0,0.3-0.2,0.3-0.5c0-0.3,0.1-0.5,0.3-0.5c0.1,0,0.3-0.4,0.3-0.9
		c0-0.5,0.1-0.9,0.3-0.9c0.1,0,0.3-0.2,0.3-0.5c0-0.3,0.2-0.6,0.4-0.6c0.2-0.1,0.4-0.4,0.4-0.7s0.1-0.5,0.3-0.5
		c0.1,0,0.3-0.2,0.3-0.5c0-0.3,0.1-0.5,0.3-0.5c0.1,0,0.3-0.3,0.3-0.7c0-0.4,0.1-0.7,0.3-0.7c0.1,0,0.3-0.2,0.3-0.5
		c0-0.3,0.2-0.6,0.4-0.6c0.2-0.1,0.4-0.4,0.4-0.7s0.1-0.5,0.3-0.5c0.1,0,0.3-0.2,0.3-0.5c0-0.3,0.1-0.5,0.3-0.5
		c0.1,0,0.3-0.2,0.3-0.4c0-0.2,0.1-0.4,0.3-0.4c0.1,0,0.3-0.2,0.3-0.5c0-0.3,0.1-0.5,0.3-0.5c0.4,0,1-0.8,1-1.4
		c0-0.3,0.1-0.5,0.3-0.5c0.1,0,0.3-0.2,0.3-0.4c0-0.2,0.4-0.8,0.9-1.3c0.5-0.5,0.9-1,0.9-1.2c0-0.2,0.2-0.6,0.5-0.9
		c0.3-0.3,0.5-0.8,0.5-1c0-0.3,0.1-0.5,0.3-0.5c0.2,0,0.6-0.3,0.8-0.7c0.3-0.4,0.8-1,1.2-1.4c1.1-1.2,1.3-1.5,1.3-1.7
		c0-0.3,1.3-1.4,1.6-1.4c0.2,0,0.3-0.1,0.3-0.2c0-0.2,4.1-4.5,4.3-4.5c0.2,0,0.6-0.4,1.6-1.2c0.3-0.3,0.7-0.6,0.8-0.6
		c0.1,0,0.4-0.3,0.8-0.6c1.7-1.5,2-1.8,2.2-1.8c0.1,0,0.3-0.1,0.3-0.3c0-0.1,0.2-0.3,0.4-0.3c0.5,0,1.2-0.6,1.2-1
		c0-0.2,0.3-0.3,0.7-0.3c0.4,0,0.7-0.1,0.7-0.3c0-0.1,0.4-0.3,0.9-0.3c0.5,0,0.9-0.1,0.9-0.3c0-0.2,1.2-0.3,3.1-0.3
		c1.9,0,3.1-0.1,3.1-0.3c0-0.2,1.7-0.3,4.7-0.3c4,0,4.7-0.1,4.7-0.4C134.1,55.2,198,55.2,198.3,55.8 M86.3,62.6
		c0,0.1-0.3,0.4-0.7,0.8c-0.4,0.4-0.7,0.8-0.7,1.1c0,0.2-0.1,0.4-0.3,0.4c-0.1,0-0.3,0.2-0.3,0.4c0,0.2-0.2,0.4-0.4,0.4
		c-0.2,0-0.4,0.2-0.4,0.4s-0.2,0.7-0.5,1c-0.3,0.3-0.5,0.7-0.5,0.9c0,0.4-0.6,1.1-1,1.1c-0.2,0-0.3,0.3-0.3,0.6c0,0.3-0.2,0.8-0.5,1
		c-0.3,0.2-0.5,0.6-0.5,0.8s-0.1,0.5-0.3,0.5s-0.3,0.3-0.3,0.7c0,0.4-0.1,0.7-0.3,0.7c-0.4,0-1,0.8-1,1.4c0,0.3-0.1,0.5-0.3,0.5
		c-0.1,0-0.3,0.2-0.3,0.5c0,0.3-0.1,0.5-0.3,0.5c-0.1,0-0.3,0.3-0.3,0.7c0,0.4-0.1,0.7-0.4,0.7c-0.2,0-0.4,0.2-0.4,0.5
		c0,0.3-0.1,0.5-0.3,0.5c-0.1,0-0.3,0.3-0.3,0.7c0,0.4-0.1,0.7-0.3,0.7c-0.1,0-0.3,0.2-0.3,0.5c0,0.3-0.1,0.5-0.3,0.5
		c-0.1,0-0.3,0.3-0.3,0.6c0,0.3-0.2,0.7-0.4,0.8c-0.2,0.1-0.4,0.4-0.4,0.8c0,0.4-0.1,0.7-0.3,0.8s-0.3,0.4-0.3,0.7S73.6,85,73.5,85
		c-0.1,0-0.3,0.4-0.3,0.9c0,0.5-0.1,0.9-0.3,0.9c-0.1,0-0.3,0.2-0.3,0.5s-0.2,0.6-0.4,0.6c-0.2,0.1-0.4,0.5-0.4,0.9
		c0,0.4-0.1,0.8-0.3,0.8c-0.1,0-0.3,0.4-0.3,0.9c0,0.5-0.1,0.9-0.3,0.9s-0.3,0.4-0.3,0.8c0,0.4-0.1,0.8-0.3,0.8
		c-0.1,0-0.3,0.4-0.3,0.9c0,0.6-0.1,0.9-0.4,0.9c-0.3,0-0.4,0.3-0.4,0.9c0,0.5-0.1,0.9-0.3,0.9c-0.1,0-0.3,0.4-0.3,0.9
		c0,0.5-0.1,0.9-0.3,0.9c-0.1,0-0.3,0.5-0.3,1.2c0,0.6-0.1,1.2-0.3,1.2c-0.1,0-0.3,0.5-0.3,1.1c0,0.8-0.1,1.2-0.4,1.3
		c-0.3,0.1-0.4,0.5-0.4,1.2c0,0.6-0.1,1.1-0.3,1.1c-0.1,0-0.3,0.6-0.3,1.4s-0.1,1.4-0.3,1.4c-0.1,0-0.3,0.6-0.3,1.4
		c0,0.8-0.1,1.4-0.3,1.4c-0.1,0-0.3,0.7-0.3,1.7c0,1.2-0.1,1.7-0.4,1.8c-0.3,0.1-0.4,0.6-0.4,2.1c0,1.1-0.1,2-0.3,2
		c-0.2,0-0.3,1-0.3,2.4c0,1.4-0.1,2.4-0.3,2.4c-0.2,0-0.3,1.3-0.3,3.3c0,2-0.1,3.3-0.3,3.3c-0.2,0-0.3,5.1-0.3,14.6
		s0.1,14.6,0.3,14.6c0.2,0,0.3,1.4,0.3,3.5c0,2.2,0.1,3.5,0.3,3.5c0.2,0,0.3,1,0.3,2.6c0,1.6,0.1,2.6,0.3,2.6c0.2,0,0.3,0.9,0.3,2.1
		c0,1.5,0.1,2.2,0.4,2.5c0.3,0.3,0.4,0.9,0.4,2.1c0,1,0.1,1.7,0.3,1.7c0.1,0,0.3,0.7,0.3,1.7s0.1,1.7,0.3,1.7c0.1,0,0.3,0.6,0.3,1.4
		s0.1,1.4,0.3,1.4c0.1,0,0.3,0.7,0.3,1.4c0,1,0.1,1.5,0.4,1.6c0.3,0.1,0.4,0.5,0.4,1.6c0,0.8,0.1,1.4,0.3,1.4c0.1,0,0.3,0.5,0.3,1.2
		s0.1,1.2,0.3,1.2c0.1,0,0.3,0.5,0.3,1.2s0.1,1.2,0.3,1.2c0.1,0,0.3,0.5,0.3,1.1c0,0.7,0.1,1.1,0.4,1.2c0.3,0.1,0.4,0.5,0.4,1.3
		c0,0.6,0.1,1.1,0.3,1.1c0.1,0,0.3,0.4,0.3,0.9c0,0.5,0.1,0.9,0.3,0.9s0.3,0.4,0.3,0.8c0,0.4,0.1,0.8,0.3,0.8c0.1,0,0.3,0.4,0.3,0.8
		c0,0.5,0.2,0.9,0.4,0.9c0.2,0.1,0.4,0.5,0.4,1c0,0.5,0.1,0.9,0.3,0.9c0.1,0,0.3,0.2,0.3,0.5c0,0.3,0.1,0.5,0.3,0.5
		c0.1,0,0.3,0.4,0.3,0.9c0,0.5,0.1,0.9,0.3,0.9s0.3,0.2,0.3,0.5c0,0.3,0.2,0.6,0.4,0.7c0.2,0.1,0.4,0.4,0.4,0.6s0.1,0.5,0.3,0.5
		c0.1,0,0.3,0.3,0.3,0.7c0,0.4,0.1,0.7,0.3,0.7c0.1,0,0.3,0.2,0.3,0.5c0,0.3,0.1,0.5,0.3,0.5c0.1,0,0.3,0.2,0.3,0.5
		c0,0.3,0.2,0.6,0.4,0.7c0.2,0.1,0.4,0.4,0.4,0.6c0,0.3,0.1,0.5,0.3,0.5c0.1,0,0.3,0.2,0.3,0.5c0,0.3,0.1,0.6,0.3,0.7
		c0.1,0.1,0.3,0.3,0.3,0.6c0,0.5,0.6,1.1,1,1.1c0.2,0,0.3,0.3,0.3,0.7c0,0.4-0.1,0.6-0.2,0.4c-0.1-0.2-0.3-0.3-0.6-0.3
		c-0.3,0-0.5-0.2-0.6-0.4c-0.1-0.2-0.4-0.4-0.7-0.4s-0.5-0.1-0.5-0.3s-0.2-0.3-0.5-0.3c-0.3,0-0.5-0.1-0.5-0.3
		c0-0.1-0.3-0.3-0.7-0.3c-0.4,0-0.7-0.1-0.7-0.3s-0.2-0.3-0.5-0.3c-0.3,0-0.5-0.1-0.5-0.3c0-0.1-0.3-0.3-0.7-0.4
		c-0.4-0.1-0.7-0.3-0.7-0.4c0-0.1-0.2-0.2-0.5-0.2c-0.3,0-0.5-0.1-0.5-0.3s-0.3-0.3-0.7-0.3c-0.4,0-0.7-0.1-0.7-0.3
		s-0.2-0.3-0.5-0.3c-0.3,0-0.6-0.2-0.6-0.4c-0.1-0.2-0.4-0.4-0.7-0.4c-0.3,0-0.5-0.1-0.5-0.3c0-0.1-0.2-0.3-0.5-0.3
		c-0.3,0-0.5-0.1-0.5-0.3s-0.2-0.3-0.5-0.3c-0.3,0-0.5-0.1-0.5-0.3s-0.2-0.3-0.4-0.3c-0.2,0-0.4-0.1-0.4-0.2c0-0.2-1.5-1.1-1.9-1.1
		c-0.2,0-0.5-0.2-0.7-0.5c-0.2-0.3-0.6-0.5-0.8-0.5c-0.2,0-0.5-0.2-0.6-0.4c-0.1-0.2-0.3-0.4-0.6-0.4c-0.2,0-0.7-0.2-1-0.5
		c-0.3-0.3-0.7-0.5-1-0.5c-0.2,0-0.6-0.2-0.8-0.5c-0.2-0.3-0.5-0.5-0.7-0.5c-0.2,0-0.6-0.3-1-0.7c-0.3-0.4-0.8-0.7-1-0.7
		c-0.2,0-0.4-0.1-0.4-0.3c0-0.1-0.2-0.3-0.4-0.3s-0.4-0.1-0.4-0.3c0-0.1-0.2-0.3-0.5-0.3c-0.3,0-0.5-0.1-0.5-0.3c0-0.4-0.8-1-1.3-1
		c-0.2,0-0.7-0.4-1.2-0.9s-0.9-0.9-1.1-0.9s-0.7-0.4-1.1-0.8c-0.4-0.4-1-0.8-1.3-0.8c-0.3,0-0.5-0.1-0.5-0.3c0-0.4-1.3-1.5-1.8-1.5
		c-0.4,0-1.1-0.6-1.1-1c0-0.1-0.3-0.5-0.7-0.7c-0.4-0.3-0.8-0.7-1-0.8c-0.2-0.2-0.5-0.3-0.7-0.3c-0.2,0-0.4-0.1-0.4-0.3
		c0-0.3-0.6-1-0.9-1c-0.2,0-1.4-1.2-1.4-1.4c0-0.2-0.7-0.9-0.9-0.9s-1.4-1.2-1.4-1.4c0-0.2-0.7-0.9-0.9-0.9s-1.4-1.2-1.4-1.4
		c0-0.2-0.7-0.9-0.9-0.9c-0.3,0-1.4-1.3-1.5-1.6c0-0.4-0.6-1.3-0.9-1.3c-0.3,0-0.9-0.7-0.9-1c0-0.2-0.1-0.3-0.3-0.3
		c-0.1,0-0.3-0.2-0.3-0.4c0-0.5-0.6-1.2-1-1.2c-0.2,0-0.3-0.3-0.3-0.6s-0.2-0.8-0.5-1c-0.3-0.2-0.5-0.6-0.5-0.8s-0.1-0.5-0.3-0.5
		c-0.1,0-0.3-0.2-0.3-0.4c0-0.2-0.2-0.4-0.4-0.4c-0.2,0-0.4-0.2-0.4-0.5c0-0.3-0.1-0.5-0.3-0.5c-0.1,0-0.3-0.3-0.3-0.6
		c0-0.3-0.2-0.8-0.5-1c-0.3-0.2-0.5-0.6-0.5-0.9c0-0.3-0.2-0.5-0.4-0.6c-0.2-0.1-0.4-0.4-0.4-0.6s-0.1-0.5-0.3-0.5
		c-0.1,0-0.3-0.4-0.3-0.9c0-0.5-0.1-0.9-0.3-0.9c-0.1,0-0.3-0.2-0.3-0.5c0-0.3-0.1-0.5-0.3-0.5c-0.1,0-0.3-0.3-0.3-0.8
		s-0.1-0.8-0.3-0.9c-0.1-0.1-0.3-0.4-0.3-0.7c0-0.3-0.2-0.6-0.4-0.7c-0.3-0.1-0.4-0.5-0.4-1.2c0-0.6-0.1-1-0.3-1
		c-0.1,0-0.3-0.4-0.3-0.9s-0.1-0.9-0.3-0.9c-0.1,0-0.3-0.6-0.3-1.4c0-0.8-0.1-1.5-0.3-1.6c-0.1-0.1-0.3-0.9-0.3-1.8
		c0-1.1-0.1-1.8-0.4-2.1c-0.3-0.3-0.4-1-0.4-2.6c0-1.3-0.1-2.2-0.3-2.2c-0.2,0-0.3-4.2-0.3-12s0.1-12,0.3-12c0.2,0,0.3-1.1,0.3-2.7
		c0-2.3,0.1-2.7,0.4-2.7c0.3,0,0.4-0.4,0.4-1.7c0-0.9,0.1-1.8,0.3-1.8c0.1-0.1,0.3-0.8,0.3-1.6c0-0.8,0.1-1.4,0.3-1.4
		c0.1,0,0.3-0.6,0.3-1.4s0.1-1.4,0.3-1.4c0.1,0,0.3-0.5,0.3-1.2c0-0.9,0.1-1.2,0.4-1.2c0.3,0,0.4-0.3,0.4-0.8c0-0.4,0.1-0.8,0.3-0.9
		c0.1-0.1,0.3-0.5,0.3-0.9c0-0.4,0.1-0.8,0.3-0.8c0.1,0,0.3-0.3,0.3-0.7c0-0.4,0.1-0.7,0.3-0.7c0.1,0,0.3-0.4,0.3-0.8
		s0.1-0.8,0.3-0.8c0.1,0,0.3-0.3,0.3-0.7c0-0.4,0.1-0.7,0.4-0.7c0.2,0,0.4-0.2,0.4-0.5s0.1-0.6,0.3-0.7c0.1-0.1,0.3-0.4,0.3-0.7
		s0.1-0.5,0.3-0.5s0.3-0.2,0.3-0.5c0-0.3,0.1-0.5,0.3-0.5c0.1,0,0.3-0.3,0.3-0.7c0-0.4,0.1-0.7,0.3-0.7c0.4,0,1-0.8,1-1.3
		c0-0.2,0.2-0.6,0.5-0.8c0.3-0.2,0.5-0.6,0.5-0.8c0-0.3,0.2-0.5,0.4-0.5c0.2,0,0.4-0.2,0.4-0.4c0-0.2,0.1-0.4,0.3-0.4
		c0.1,0,0.3-0.2,0.3-0.5c0-0.3,0.2-0.6,0.5-0.8c0.3-0.2,0.5-0.5,0.5-0.7s0.1-0.3,0.3-0.3c0.4,0,1-0.7,1-1.2c0-0.2,0.1-0.4,0.3-0.4
		c0.1,0,0.3-0.1,0.3-0.3c0-0.3,0.6-1,0.9-1c0.2,0,1.4-1.2,1.4-1.4c0-0.2,0.7-0.9,0.9-0.9c0.2,0,1.4-1.2,1.4-1.4c0-0.2,0.7-0.9,1-0.9
		c0.1,0,0.4-0.2,0.6-0.5c0.2-0.3,0.5-0.5,0.7-0.5c0.2,0,0.4-0.2,0.5-0.4c0.1-0.2,0.3-0.4,0.4-0.4c0.1,0,0.6-0.4,1-0.8
		c0.4-0.4,0.9-0.8,1-0.8s0.7-0.4,1.2-0.9c0.5-0.5,1.1-0.9,1.3-0.9s0.4-0.1,0.4-0.3c0-0.1,0.2-0.3,0.4-0.3s0.4-0.2,0.4-0.4
		c0-0.2,0.2-0.4,0.5-0.4c0.3,0,0.5-0.1,0.5-0.3c0-0.1,0.2-0.3,0.4-0.3c0.2,0,0.4-0.1,0.4-0.3s0.2-0.3,0.5-0.3c0.3,0,0.6-0.2,0.8-0.5
		c0.2-0.3,0.6-0.5,0.9-0.5c0.3,0,0.5-0.2,0.6-0.4c0.1-0.2,0.4-0.4,0.6-0.4s0.5-0.1,0.5-0.3c0-0.1,0.2-0.3,0.4-0.3s0.4-0.1,0.4-0.3
		c0-0.1,0.2-0.3,0.5-0.3c0.3,0,0.5-0.1,0.5-0.3c0-0.1,0.2-0.3,0.5-0.3c0.3,0,0.6-0.2,0.7-0.4c0.1-0.2,0.4-0.4,0.6-0.4
		c0.3,0,0.5-0.1,0.5-0.3s0.2-0.3,0.5-0.3c0.3,0,0.6-0.1,0.7-0.3c0.1-0.1,0.4-0.3,0.7-0.3c0.3,0,0.5-0.1,0.5-0.3
		c0-0.1,0.2-0.3,0.5-0.3s0.6-0.2,0.7-0.4c0.1-0.2,0.4-0.4,0.6-0.4s0.5-0.1,0.5-0.3c0-0.1,0.3-0.3,0.7-0.3c0.4,0,0.7-0.1,0.7-0.3
		s0.2-0.3,0.5-0.3c0.3,0,0.5-0.1,0.5-0.3c0-0.1,0.3-0.3,0.6-0.3c0.3,0,0.8-0.2,1-0.4c0.2-0.2,0.6-0.4,0.8-0.4c0.2,0,0.4-0.1,0.4-0.3
		c0-0.1,0.4-0.3,0.9-0.3c0.5,0,0.9-0.1,0.9-0.3c0-0.1,0.2-0.3,0.5-0.3c0.3,0,0.5-0.1,0.5-0.3c0-0.1,0.4-0.3,0.8-0.3
		c0.5,0,0.9-0.2,0.9-0.4c0.1-0.2,0.4-0.4,0.8-0.4s0.6-0.1,0.6-0.3c0-0.1,0.4-0.3,0.8-0.3s0.8-0.1,0.8-0.3c0-0.1,0.4-0.3,0.9-0.3
		c0.5,0,0.9-0.1,0.9-0.3c0-0.1,0.4-0.3,0.9-0.3c0.6,0,0.9-0.1,0.9-0.4c0-0.3,0.3-0.4,1.2-0.4c0.6,0,1.2-0.1,1.2-0.3
		c0-0.1,0.4-0.3,0.9-0.3c0.5,0,0.9-0.1,0.9-0.3c0-0.1,0.5-0.3,1-0.3c0.6,0,1.1-0.1,1.2-0.3c0.1-0.1,0.5-0.3,0.9-0.3
		c0.5,0,0.8-0.1,0.8-0.4c0-0.3,0.3-0.4,1-0.4C85.8,62.5,86.3,62.5,86.3,62.6 M291.8,92.8c0,0.1-0.5,0.3-1.2,0.3
		c-0.9,0-1.2,0.1-1.2,0.4c0,0.3-0.3,0.4-0.9,0.4c-0.5,0-0.9,0.1-0.9,0.3c0,0.1-0.3,0.3-0.7,0.3c-0.4,0-0.7,0.1-0.7,0.3
		c0,0.1-0.2,0.3-0.5,0.3c-0.3,0-0.5,0.1-0.5,0.3c0,0.1-0.2,0.3-0.4,0.3c-0.2,0-0.9,0.5-1.6,1.2c-0.6,0.6-1.3,1.2-1.4,1.2
		s-0.3,0.1-0.3,0.3c0,0.2-0.5,0.8-1.2,1.4s-1.2,1.3-1.2,1.5c0,0.2-0.2,0.5-0.5,0.8c-0.3,0.2-0.5,0.6-0.5,1c0,0.3-0.1,0.6-0.3,0.6
		c-0.1,0-0.3,0.3-0.3,0.8c0,0.4-0.2,0.8-0.4,0.9c-0.2,0.1-0.4,0.5-0.4,0.9c0,0.4-0.1,0.8-0.3,0.8c-0.2,0-0.3,1.8-0.3,5s0.1,5,0.3,5
		c0.1,0,0.3,0.4,0.3,0.8c0,0.5,0.2,0.9,0.4,0.9c0.2,0.1,0.4,0.5,0.4,0.9c0,0.4,0.1,0.8,0.3,0.9c0.1,0.1,0.3,0.4,0.3,0.6
		c0,0.2,0.2,0.6,0.5,0.8c0.3,0.2,0.5,0.6,0.5,0.8s0.4,0.8,0.9,1.2s0.9,0.9,0.9,1c0,0.3,0.7,1,0.9,1c0.1,0,0.7,0.5,1.3,1.2
		c0.6,0.6,1.3,1.2,1.5,1.2s0.4,0.1,0.4,0.3c0,0.1,0.2,0.3,0.5,0.3c0.3,0,0.5,0.1,0.5,0.3c0,0.1,0.3,0.3,0.6,0.3s0.7,0.2,0.8,0.4
		c0.1,0.2,0.5,0.4,0.9,0.4c0.4,0,0.8,0.1,0.8,0.3c0,0.1,0.5,0.3,1.2,0.3c0.6,0,1.2,0.1,1.2,0.3c0,0.2,1.3,0.3,3.4,0.3
		c2.1,0,3.4-0.1,3.4-0.3c0-0.1,0.5-0.3,1.2-0.3c0.6,0,1.2-0.1,1.2-0.3c0-0.1,0.4-0.3,0.8-0.3c0.5,0,0.9-0.2,0.9-0.4
		c0.1-0.2,0.4-0.4,0.8-0.4s0.6-0.1,0.6-0.3c0-0.1,0.2-0.3,0.5-0.3c0.3,0,0.5-0.1,0.5-0.3c0-0.1,0.2-0.3,0.5-0.3
		c0.3,0,0.9-0.5,1.5-1.2c0.6-0.6,1.1-1.2,1.2-1.2c0.3,0,1-0.7,1-1c0-0.1,0.4-0.6,0.9-1s0.9-1,0.9-1.2s0.2-0.6,0.5-0.8
		c0.3-0.2,0.5-0.6,0.5-1s0.1-0.6,0.3-0.6c0.1,0,0.3-0.3,0.3-0.8c0-0.4,0.2-0.8,0.4-0.9c0.2-0.1,0.4-0.5,0.4-0.9
		c0-0.4,0.1-0.8,0.3-0.8c0.2,0,0.3-1.8,0.3-5s-0.1-5-0.3-5c-0.1,0-0.3-0.4-0.3-0.8c0-0.5-0.2-0.9-0.4-0.9c-0.2-0.1-0.4-0.5-0.4-0.9
		c0-0.4-0.1-0.8-0.3-0.8c-0.1,0-0.3-0.3-0.3-0.6c0-0.3-0.2-0.8-0.5-1c-0.3-0.2-0.5-0.5-0.5-0.8c0-0.2-0.5-0.9-1.2-1.5
		s-1.2-1.2-1.2-1.4c0-0.2-0.1-0.3-0.3-0.3c-0.2,0-0.8-0.5-1.4-1.2c-0.6-0.6-1.3-1.2-1.5-1.2c-0.2,0-0.4-0.1-0.4-0.3
		c0-0.1-0.2-0.3-0.5-0.3c-0.3,0-0.5-0.1-0.5-0.3c0-0.1-0.3-0.3-0.7-0.3c-0.4,0-0.7-0.1-0.7-0.3c0-0.1-0.4-0.3-0.9-0.3
		c-0.6,0-0.9-0.1-0.9-0.4c0-0.3-0.3-0.4-1.2-0.4c-0.6,0-1.2-0.1-1.2-0.3c0-0.2-1.3-0.3-3.4-0.3C293.1,92.5,291.8,92.7,291.8,92.8
		 M198.3,95.8c-0.1,0.3-0.5,0.4-1.6,0.4c-0.8,0-1.4,0.1-1.4,0.3c0,0.1-0.3,0.3-0.8,0.3c-0.4,0-0.8,0.1-0.9,0.3
		c-0.1,0.1-0.5,0.3-0.9,0.3s-0.8,0.1-0.8,0.3c0,0.1-0.2,0.3-0.5,0.3c-0.3,0-0.6,0.2-0.7,0.4c-0.1,0.2-0.4,0.4-0.6,0.4
		c-0.3,0-0.5,0.1-0.5,0.3c0,0.1-0.2,0.3-0.4,0.3c-0.2,0-0.4,0.1-0.4,0.3c0,0.1-0.2,0.3-0.4,0.3c-0.5,0-1.2,0.6-1.2,1
		c0,0.2-0.2,0.3-0.5,0.3c-0.6,0-6,5.3-6,5.9c0,0.2-0.1,0.4-0.3,0.4s-0.3,0.2-0.3,0.4c0,0.2-0.1,0.4-0.3,0.4s-0.3,0.2-0.3,0.5
		c0,0.3-0.2,0.5-0.4,0.5s-0.4,0.2-0.4,0.5c0,0.3-0.1,0.5-0.3,0.5s-0.3,0.3-0.3,0.7c0,0.4-0.1,0.7-0.3,0.7s-0.3,0.2-0.3,0.5
		c0,0.3-0.1,0.5-0.3,0.5c-0.1,0-0.3,0.3-0.3,0.7c0,0.4-0.1,0.7-0.4,0.7c-0.2,0-0.4,0.2-0.4,0.5s-0.1,0.6-0.3,0.7s-0.3,0.4-0.3,0.7
		s-0.1,0.5-0.3,0.5s-0.3,0.4-0.3,0.9c0,0.5-0.1,0.9-0.3,0.9c-0.1,0-0.3,0.2-0.3,0.5c0,0.3-0.2,0.6-0.4,0.6c-0.2,0.1-0.4,0.5-0.4,0.9
		c0,0.4-0.1,0.8-0.3,0.8s-0.3,0.4-0.3,0.9c0,0.5-0.1,0.9-0.3,0.9c-0.1,0-0.3,0.4-0.3,0.9c0,0.5-0.1,0.9-0.3,0.9
		c-0.1,0-0.3,0.5-0.3,1c0,0.7-0.1,1.1-0.4,1.2c-0.3,0.1-0.4,0.5-0.4,1.2c0,0.6-0.1,1.1-0.3,1.1c-0.1,0-0.3,0.5-0.3,1.2
		c0,0.6-0.1,1.2-0.3,1.3c-0.1,0.1-0.3,0.8-0.3,1.6c0,0.8-0.1,1.4-0.3,1.4c-0.1,0-0.3,0.7-0.3,1.7c0,1.2-0.1,1.7-0.4,1.8
		c-0.3,0.1-0.4,0.7-0.4,2.6c0,1.5-0.1,2.5-0.3,2.5c-0.2,0-0.3,3.7-0.3,10.6c0,6.9,0.1,10.6,0.3,10.6c0.2,0,0.3,1,0.3,2.6
		c0,2.2,0.1,2.6,0.4,2.6c0.3,0,0.4,0.4,0.4,2.1c0,1.2,0.1,2.1,0.3,2.1c0.1,0,0.3,0.7,0.3,1.7c0,1,0.1,1.7,0.3,1.7
		c0.1,0,0.3,0.6,0.3,1.3c0,0.7,0.1,1.3,0.3,1.3c0.1,0,0.3,0.6,0.3,1.3c0,0.9,0.1,1.4,0.4,1.5c0.2,0.1,0.4,0.5,0.4,0.9
		c0,0.4,0.1,0.8,0.3,0.8c0.1,0,0.3,0.5,0.3,1.2s0.1,1.2,0.3,1.2c0.1,0,0.3,0.4,0.3,0.9c0,0.5,0.1,0.9,0.3,0.9s0.3,0.3,0.3,0.7
		c0,0.4,0.1,0.7,0.4,0.7c0.3,0,0.4,0.3,0.4,0.8c0,0.4,0.1,0.8,0.3,0.8c0.1,0,0.3,0.3,0.3,0.7c0,0.4,0.1,0.7,0.3,0.7s0.3,0.2,0.3,0.5
		c0,0.3,0.1,0.5,0.3,0.5s0.3,0.3,0.3,0.7c0,0.4,0.1,0.7,0.4,0.7c0.2,0,0.4,0.2,0.4,0.5c0,0.3,0.1,0.5,0.3,0.5c0.1,0,0.3,0.2,0.3,0.4
		s0.1,0.4,0.3,0.4s0.3,0.2,0.3,0.4c0,0.5,0.6,1.2,1,1.2c0.2,0,0.3,0.2,0.3,0.5c0,0.3,0.4,0.9,0.8,1.3c0.4,0.4,0.8,0.8,0.8,0.9
		c0,0.2,0.7,0.9,0.9,0.9c0.3,0,1.4,1.3,1.4,1.6c0,0.2,0.1,0.3,0.2,0.3c0.1,0,0.6,0.4,1,0.8c0.5,0.4,0.9,0.8,1.1,0.8
		c0.2,0,0.5,0.3,0.9,0.7c0.3,0.4,0.8,0.7,1,0.7s0.4,0.1,0.4,0.3c0,0.1,0.3,0.3,0.7,0.3c0.4,0,0.7,0.1,0.7,0.3c0,0.1,0.2,0.3,0.5,0.3
		c0.3,0,0.6,0.2,0.6,0.4c0.1,0.2,0.5,0.4,0.9,0.4c0.4,0,0.8,0.1,0.8,0.3c0,0.1,0.4,0.3,0.9,0.3c0.5,0,0.9,0.1,0.9,0.3
		c0,0.1,0.4,0.3,0.9,0.3c0.5,0,0.9,0.1,0.9,0.3c0,0.2,0.8,0.3,1.9,0.3c1.5,0,2,0.1,2.1,0.4c0.1,0.3,0.8,0.4,3.8,0.4
		c2.9,0,3.7-0.1,4-0.4c0.3-0.3,1-0.4,2.4-0.4c1.1,0,2-0.1,2-0.3c0-0.2,1-0.3,2.4-0.3c1.4,0,2.4-0.1,2.4-0.3s1-0.3,2.4-0.3
		c1.4,0,2.4-0.1,2.4-0.3c0-0.1,0.6-0.3,1.3-0.3c0.9,0,1.4-0.1,1.5-0.4c0.1-0.3,0.5-0.4,1.3-0.4c0.6,0,1.1-0.1,1.1-0.3
		c0-0.1,0.3-0.3,0.7-0.3c0.4,0,0.7-0.1,0.7-0.3c0-0.1,0.3-0.3,0.8-0.3s0.8-0.1,0.9-0.3c0.1-0.1,0.4-0.3,0.7-0.3
		c0.3,0,0.5-0.2,0.5-0.4c0-0.2,0.2-0.4,0.7-0.4c0.4,0,0.7-0.1,0.7-0.3c0-0.1,0.2-0.3,0.5-0.3c0.3,0,0.5-0.1,0.5-0.3
		c0-0.1,0.2-0.3,0.5-0.3s0.5-0.1,0.5-0.3c0-0.1,0.2-0.3,0.4-0.3c0.2,0,0.4-0.1,0.4-0.3c0-0.4,0.7-1,1.2-1c0.2,0,0.4-0.1,0.4-0.3
		c0-0.1,0.1-0.3,0.3-0.3c0.3,0,1-0.7,1-1c0-0.1,0.3-0.5,0.7-0.7c1-0.8,1.7-1.5,1.7-1.9c0-0.4,0.6-1.1,0.9-1.1c0.3,0,0.9-0.9,0.9-1.4
		c0-0.3,0.1-0.5,0.3-0.5c0.1,0,0.3-0.2,0.3-0.5c0-0.3,0.1-0.5,0.3-0.5c0.1,0,0.3-0.3,0.3-0.7c0-0.4,0.1-0.7,0.4-0.7
		c0.2,0,0.4-0.2,0.4-0.5c0-0.3,0.1-0.6,0.3-0.7c0.1-0.1,0.3-0.5,0.3-0.9s0.1-0.8,0.3-0.8c0.1,0,0.3-0.4,0.3-0.9
		c0-0.5,0.1-0.9,0.3-0.9c0.1,0,0.3-0.5,0.3-1.2c0-0.6,0.1-1.2,0.3-1.2s0.3-0.6,0.3-1.4c0-1.1,0.1-1.4,0.4-1.4c0.3,0,0.4-1.2,0.4-9.3
		c0-8-0.1-9.3-0.4-9.4c-0.3-0.1-0.4-0.6-0.4-2.5c0-1.4-0.1-2.3-0.3-2.3c-0.1,0-0.3-0.7-0.3-1.7c0-1-0.1-1.7-0.3-1.7
		c-0.1,0-0.3-0.6-0.3-1.4c0-0.8-0.1-1.4-0.3-1.4c-0.1,0-0.3-0.6-0.3-1.4s-0.1-1.5-0.3-1.6c-0.1-0.1-0.3-0.7-0.3-1.3
		c0-0.7-0.2-1.3-0.4-1.5c-0.2-0.2-0.4-0.9-0.4-1.5c0-0.6-0.1-1.1-0.3-1.1c-0.1,0-0.3-0.4-0.3-0.9c0-0.5-0.1-0.9-0.3-0.9
		c-0.1,0-0.3-0.5-0.3-1c0-0.6-0.1-1.1-0.3-1.2c-0.1-0.1-0.3-0.5-0.3-0.9c0-0.5-0.1-0.8-0.4-0.8c-0.3,0-0.4-0.3-0.4-0.9
		c0-0.5-0.1-0.9-0.3-0.9c-0.1,0-0.3-0.4-0.3-0.9c0-0.5-0.1-0.9-0.3-0.9c-0.1,0-0.3-0.3-0.3-0.8c0-0.4-0.1-0.8-0.3-0.9
		c-0.1-0.1-0.3-0.4-0.3-0.7c0-0.3-0.2-0.5-0.4-0.5c-0.3,0-0.4-0.3-0.4-0.9c0-0.5-0.1-0.9-0.3-0.9c-0.1,0-0.3-0.2-0.3-0.5
		s-0.1-0.5-0.3-0.5c-0.1,0-0.3-0.4-0.3-0.9c0-0.5-0.1-0.9-0.3-0.9c-0.1,0-0.3-0.2-0.3-0.5s-0.2-0.6-0.4-0.7
		c-0.2-0.1-0.4-0.4-0.4-0.6s-0.1-0.5-0.3-0.5c-0.1,0-0.3-0.3-0.3-0.7c0-0.4-0.1-0.7-0.3-0.7c-0.1,0-0.3-0.2-0.3-0.5
		c0-0.3-0.1-0.5-0.3-0.5c-0.1,0-0.3-0.2-0.3-0.5s-0.2-0.6-0.4-0.7c-0.2-0.1-0.4-0.4-0.4-0.6c0-0.3-0.1-0.5-0.3-0.5
		c-0.1,0-0.3-0.3-0.3-0.7c0-0.4-0.1-0.7-0.3-0.7c-0.1,0-0.3-0.2-0.3-0.4c0-0.4-0.2-0.6-1-1.5c-0.2-0.2-0.3-0.5-0.3-0.6
		c0-0.2-0.1-0.3-0.3-0.3c-0.1,0-0.3-0.2-0.3-0.5c0-0.3-0.1-0.5-0.3-0.5c-0.1,0-0.3-0.2-0.3-0.5c0-0.6-0.6-1.4-1-1.4
		c-0.2,0-0.3-0.2-0.3-0.5c0-0.3-0.1-0.5-0.3-0.5c-0.1,0-0.3-0.2-0.3-0.4c0-0.2-0.1-0.4-0.3-0.4c-0.1,0-0.3-0.2-0.3-0.4
		c0-0.2-0.4-0.8-0.9-1.3c-0.5-0.5-0.9-1-0.9-1.2c0-0.2-0.5-0.8-1.2-1.5s-1.2-1.3-1.2-1.5c0-0.2-0.1-0.4-0.3-0.4s-0.3-0.2-0.3-0.4
		c0-0.2-0.1-0.4-0.2-0.4c-0.3,0-2.1-1.7-2.1-1.9c0-0.3-0.7-0.9-1-0.9c-0.1,0-0.4-0.2-0.6-0.5c-0.2-0.3-0.6-0.5-0.8-0.5
		c-0.3,0-0.5-0.2-0.5-0.4c0-0.2-0.2-0.4-0.4-0.4c-0.2,0-0.4-0.1-0.4-0.3c0-0.1-0.2-0.3-0.5-0.3c-0.3,0-0.5-0.1-0.5-0.3
		c0-0.1-0.3-0.3-0.7-0.3c-0.4,0-0.7-0.1-0.7-0.3c0-0.1-0.2-0.3-0.5-0.3c-0.3,0-0.6-0.2-0.6-0.4c-0.1-0.2-0.5-0.4-0.9-0.4
		c-0.4,0-0.8-0.1-0.8-0.3c0-0.1-0.2-0.3-0.5-0.3c-0.3,0-0.5-0.1-0.5-0.3c0-0.1-0.5-0.3-1.2-0.3s-1.2-0.1-1.2-0.3
		c0-0.1-0.7-0.3-1.6-0.3c-1.2,0-1.6-0.1-1.6-0.4c0-0.3-0.6-0.4-3.7-0.4C199.1,95.4,198.4,95.5,198.3,95.8 M121.4,109.3
		c-0.1,0.1-0.8,0.3-1.6,0.3c-0.8,0-1.4,0.1-1.4,0.3s-0.4,0.3-0.9,0.3c-0.5,0-1.1,0.2-1.3,0.4c-0.2,0.2-0.6,0.4-0.8,0.4
		c-0.2,0-0.5,0.1-0.6,0.3s-0.4,0.3-0.6,0.3c-0.2,0-0.6,0.2-0.8,0.5c-0.2,0.3-0.6,0.5-0.8,0.5s-0.8,0.4-1.2,0.9s-0.9,0.9-1,0.9
		c-0.3,0-1,0.7-1,1c0,0.1-0.4,0.6-0.9,1s-0.9,1-0.9,1.2s-0.2,0.6-0.5,0.8c-0.3,0.2-0.5,0.6-0.5,0.8c0,0.2-0.1,0.5-0.3,0.6
		c-0.1,0.1-0.3,0.3-0.3,0.6c0,0.2-0.2,0.6-0.4,0.8c-0.2,0.2-0.4,0.8-0.4,1.3c0,0.5-0.1,0.9-0.3,0.9s-0.3,0.6-0.3,1.4
		s-0.1,1.4-0.3,1.4c-0.2,0-0.3,0.9-0.3,2.1c0,1.2,0.1,2.1,0.3,2.1c0.1,0,0.3,0.7,0.3,1.7c0,1,0.1,1.7,0.3,1.7c0.1,0,0.3,0.4,0.3,0.8
		c0,0.5,0.2,0.9,0.4,0.9c0.2,0.1,0.4,0.4,0.4,0.6c0,0.3,0.1,0.5,0.3,0.5c0.1,0,0.3,0.3,0.3,0.7c0,0.4,0.1,0.7,0.3,0.7
		c0.1,0,0.3,0.2,0.3,0.5c0,0.3,0.1,0.5,0.3,0.5c0.1,0,0.3,0.2,0.3,0.4c0,0.2,0.2,0.4,0.4,0.4c0.2,0,0.4,0.2,0.4,0.5s0.2,0.6,0.5,0.8
		c0.3,0.2,0.5,0.5,0.5,0.7c0,0.2,0.1,0.3,0.2,0.3c0.1,0,0.6,0.4,1,0.8c0.5,0.4,0.9,0.8,1.1,0.8c0.2,0,0.5,0.3,0.9,0.7
		c0.3,0.4,0.8,0.7,1,0.7s0.4,0.1,0.4,0.3c0,0.1,0.3,0.3,0.7,0.3c0.4,0,0.7,0.1,0.7,0.3s0.4,0.3,0.8,0.3c0.5,0,0.8,0.1,0.8,0.4
		c0,0.3,0.3,0.4,0.9,0.4c0.5,0,0.9,0.1,0.9,0.3c0,0.2,1.7,0.3,4.4,0.3c2.8,0,4.4-0.1,4.4-0.3c0-0.1,0.5-0.3,1.1-0.3
		c0.7,0,1.1-0.1,1.2-0.4c0.1-0.2,0.5-0.4,0.9-0.4c0.4,0,0.8-0.1,0.8-0.3s0.2-0.3,0.5-0.3c0.3,0,0.7-0.2,1-0.5
		c0.3-0.3,0.7-0.5,0.9-0.5c0.2,0,0.8-0.5,1.4-1.2c0.6-0.6,1.2-1.2,1.4-1.2s0.3-0.1,0.3-0.3c0-0.2,0.5-0.8,1.2-1.4
		c0.6-0.6,1.2-1.3,1.2-1.5c0-0.2,0.2-0.5,0.5-0.8c0.3-0.2,0.5-0.6,0.5-1c0-0.3,0.1-0.6,0.3-0.6c0.1,0,0.3-0.3,0.3-0.8
		c0-0.4,0.2-0.8,0.4-0.9c0.3-0.1,0.4-0.5,0.4-1.2c0-0.6,0.1-1.1,0.3-1.1c0.2,0,0.3-1.6,0.3-4.3c0-2.6-0.1-4.4-0.3-4.5
		c-0.1-0.1-0.3-0.5-0.3-0.9c0-0.4-0.2-0.8-0.4-0.9c-0.2-0.1-0.4-0.5-0.4-0.9c0-0.4-0.1-0.8-0.3-0.8c-0.1,0-0.3-0.3-0.3-0.7
		c0-0.4-0.1-0.7-0.3-0.7s-0.3-0.2-0.3-0.4s-0.3-0.7-0.7-1c-0.4-0.3-0.7-0.7-0.7-0.9c0-0.4-3-3.4-3.4-3.4c-0.2,0-0.6-0.3-0.9-0.7
		c-0.3-0.4-0.8-0.7-1-0.7c-0.2,0-0.4-0.1-0.4-0.3c0-0.1-0.3-0.3-0.7-0.3c-0.4,0-0.7-0.1-0.7-0.3s-0.2-0.3-0.5-0.3s-0.6-0.2-0.6-0.4
		c-0.1-0.2-0.5-0.4-0.9-0.4c-0.4,0-0.8-0.1-0.8-0.3c0-0.1-0.7-0.3-1.7-0.3c-1,0-1.7-0.1-1.7-0.3c0-0.2-0.8-0.3-1.9-0.3
		C122.5,109,121.5,109.1,121.4,109.3 M0,0 M0,0 M0,0 M0,0"/>
</g>
</svg>
