<svg id="Capa_1" data-name="Capa 1" xmlns="http://www.w3.org/2000/svg" viewBox="0 0 659.38 194.89"><defs><style>.cls-1{fill:#0d0e10;}</style></defs><path class="cls-1" d="M484.27,71.12c13.11,0,21.12,7.07,21.12,19.35v33.19H496v-6.87h-1.25c-1.87,3.43-5.83,8.32-15.71,8.32-10.61,0-18.83-5.83-18.83-16.13,0-10.51,8.22-15.81,19.35-15.81h16.23V89.84c0-6.35-3.85-10.72-11.65-10.72s-11.86,4.27-13.11,10.09L461.9,86.3C464.4,78,471.27,71.12,484.27,71.12Zm-3.53,46c8.95,0,15.09-5.72,15.09-15v-1H480.12c-6,0-10.09,2.7-10.09,7.7S474.08,117.11,480.74,117.11Z" transform="translate(-24.64 -44.3)"/><path class="cls-1" d="M528.28,79.45h1c2-5.1,6-7.07,12.8-7.07h6.35v8.43h-8c-7.18,0-12,3.85-12,12.07v30.8h-9.78V72.58h9.57v6.87Z" transform="translate(-24.64 -44.3)"/><path class="cls-1" d="M578.11,71.12c13.84,0,22.58,8.64,24.55,19.56l-9.57,2c-.83-7.39-6.14-12.9-14.88-12.9-9.57,0-16.75,7.28-16.75,18.41s7.28,18.31,16.75,18.31c9.16,0,13.94-5.41,15.29-13l9.47,2.19c-2.5,11-10.82,19.46-24.86,19.46-14.77,0-26.53-11.13-26.53-26.95S563.34,71.12,578.11,71.12Z" transform="translate(-24.64 -44.3)"/><path class="cls-1" d="M458.68,181.4c14.56,0,24.66,9.89,24.66,25.59v4.79H443.08c.62,8.84,7.08,15.09,16.33,15.09,8.32,0,12.48-4.47,15-9.47l8.12,4.58c-3.12,5.31-9.05,13.42-23.1,13.42-15.81,0-26.32-11.65-26.32-27.36S443.8,181.4,458.68,181.4Zm14.67,22.47c-.52-8.84-6.24-13.94-14.67-13.94-8.85,0-14.46,5.41-15.5,13.94Z" transform="translate(-24.64 -44.3)"/><path class="cls-1" d="M503.42,233.94h-9.78V161.11h9.78Z" transform="translate(-24.64 -44.3)"/><path class="cls-1" d="M539.72,181.4c14.56,0,24.66,9.89,24.66,25.59v4.79H524.12c.62,8.84,7.07,15.09,16.33,15.09,8.32,0,12.49-4.47,15-9.47l8.12,4.58c-3.12,5.31-9,13.42-23.1,13.42-15.81,0-26.32-11.65-26.32-27.36S524.85,181.4,539.72,181.4Zm14.67,22.47c-.52-8.84-6.24-13.94-14.67-13.94-8.84,0-14.46,5.41-15.5,13.94Z" transform="translate(-24.64 -44.3)"/><path class="cls-1" d="M579.57,159.86a7.44,7.44,0,1,1-7.49,7.49A7.3,7.3,0,0,1,579.57,159.86Zm4.89,74.08h-9.78V182.86h9.78Z" transform="translate(-24.64 -44.3)"/><path class="cls-1" d="M608,189.72h1c2-5.1,6-7.08,12.8-7.08h6.35v8.43h-8c-7.18,0-12,3.85-12,12.07v30.8h-9.78V182.86H608v6.86Z" transform="translate(-24.64 -44.3)"/><path class="cls-1" d="M657.59,181.4c15.4,0,26.43,10.72,26.43,27s-11,27-26.43,27-26.32-10.72-26.32-27S642.2,181.4,657.59,181.4Zm0,45.36c9.89,0,16.65-7.18,16.65-18.31S667.48,190,657.59,190s-16.54,7.39-16.54,18.42C641.05,219.79,647.71,226.76,657.59,226.76Z" transform="translate(-24.64 -44.3)"/><polygon class="cls-1" points="346.03 72.53 352.86 79.36 355.73 79.36 346.03 69.66 346.03 72.53"/><polygon class="cls-1" points="346.03 79.36 350.68 79.36 346.03 74.71 346.03 79.36"/><polygon class="cls-1" points="346.03 67.49 357.9 79.36 359.34 79.36 359.34 78.26 346.03 64.94 346.03 67.49"/><polygon class="cls-1" points="402 6.54 386.29 65.42 385.25 65.42 369.54 6.54 346.03 6.54 346.03 62.77 359.34 76.09 359.34 20.69 360.38 20.69 376.1 79.36 395.45 79.36 411.16 20.69 412.2 20.69 412.2 79.36 425.51 79.36 425.51 6.54 402 6.54"/><path class="cls-1" d="M426.64,209.18v-2.71h-5.87l5.73,5.73C426.59,211.22,426.64,210.21,426.64,209.18Z" transform="translate(-24.64 -44.3)"/><path class="cls-1" d="M418.59,206.47h-2.54l9.8,9.8c.16-.7.3-1.41.41-2.13Z" transform="translate(-24.64 -44.3)"/><path class="cls-1" d="M397.72,223.12c-10,0-16.23-6.45-16.23-16.65V188.58c0-10.19,6.24-16.64,16.23-16.64s15.19,6.45,15.19,13.73v2.08h13.73v-1.87c0-15.81-10.61-26.22-28.92-26.22s-30,10.4-30,29.13v17.48c0,18.73,11.65,29.13,30,29.13,12.92,0,22-5.19,26.23-13.8l-11.1-11.1C412.35,217.32,407.19,223.12,397.72,223.12Z" transform="translate(-24.64 -44.3)"/><path class="cls-1" d="M412.91,206.47v1.91l11.72,11.72c.28-.69.53-1.4.75-2.12l-11.51-11.51Z" transform="translate(-24.64 -44.3)"/><path class="cls-1" d="M24.64,151.92V131.48c3-.95,6.14-1.54,8.9-2.91,6.41-3.18,10-8.41,10-15.78q0-18.84,0-37.68c0-21,9.85-30.74,31-30.76h9.07v19c-.46.31-.78.71-1.12.73-13.78,1-14.17,1.46-14.17,15.18,0,11.71.16,23.42-.09,35.13a44.82,44.82,0,0,1-1.88,12.52c-2.76,8.66-8.83,13.75-19.09,14.09,5,2.25,9.54,3.3,12.78,6,6.33,5.17,8.19,12.72,8.24,20.65.08,11.92,0,23.85,0,35.77,0,14.77,0,14.81,15.14,16v19.41c-8.72.69-17.5,1.26-25.87-2.84-10-4.88-13.73-13.53-14-24-.26-11.28-.07-22.57-.08-33.85C43.53,160.07,41.5,157.23,24.64,151.92Z" transform="translate(-24.64 -44.3)"/><path class="cls-1" d="M255.91,239.07v-19c.45-.36.75-.81,1.1-.84,14-1.34,14.21-1.53,14.21-15.78,0-12.34,0-24.68,0-37,0-7.6,2.23-14.53,8-19.41,3.19-2.69,7.76-3.75,11.61-5.5-15.79-5.63-19.61-11.16-19.62-28.52,0-11.91,0-23.83,0-35.74,0-10.73-1.61-12.35-12.49-13-.81,0-1.61-.24-2.76-.43V45.45c26.25-5.28,41.47,8.24,39.55,29-.08.84,0,1.7,0,2.55v30c0,15.58,3.58,20.23,19,24.35V152c-16.54,5.35-19,8.78-19,26.24,0,11.06,0,22.13,0,33.19-.08,16.84-9.84,27-26.72,27.68C264.76,239.21,260.74,239.07,255.91,239.07Z" transform="translate(-24.64 -44.3)"/><path class="cls-1" d="M156.33,154.93c-17.36-7.17-27.92,2-28,2.14a1.25,1.25,0,0,0-.1,1.76l.28.31a1.26,1.26,0,0,0,1.76.1A18.42,18.42,0,0,1,136.7,156c3.91-1.14,10.3-1.79,18.52,1.61a1.25,1.25,0,0,0,1.63-.68l.16-.38a1.26,1.26,0,0,0-.68-1.64Z" transform="translate(-24.64 -44.3)"/><path class="cls-1" d="M246.71,153.34a7.21,7.21,0,0,0-.76-5.4l-.06-.08a3,3,0,0,0-.25-.37,4.72,4.72,0,0,1-.48-.69l-.2-.39a3.36,3.36,0,0,1-.22-.42c-.28-.45.12-.9.33-1.29a5.87,5.87,0,0,0,.81-4.45,1.83,1.83,0,0,1,0-.9c.87-3.2-.52-5.89-2-8.52a3.46,3.46,0,0,1-.22-3.43,8.87,8.87,0,0,0,0-6.14c-.85-2.64-2.53-4.76-3.87-7.08-.77-1.32-2.27-2.1-3.67-2.87-1.18-.64-2.81-.6-3.46-2.2a13.9,13.9,0,0,1-.67-2.32,8.74,8.74,0,0,0-2.66-4.76,21.37,21.37,0,0,0-7.75-4.42,1.15,1.15,0,0,1-.67-1.68,5.48,5.48,0,0,0,.08-5.07,14.72,14.72,0,0,0-4.83-5.34,33.07,33.07,0,0,0-5.82-2.79,14,14,0,0,0-4.22-.9,44,44,0,0,0-7.35-.42,3,3,0,0,0-1.5.33,2.22,2.22,0,0,1-3-.42A13.77,13.77,0,0,0,191,79.13a27.3,27.3,0,0,1-2.46-1.81,21.64,21.64,0,0,0-7.5-3.56c-2-.47-3.83-.18-5.74-.3a3.5,3.5,0,0,0-1.93.57A25.19,25.19,0,0,0,168,77.71c-1,1-1.95.76-2.8-.5l-.07,0c-2.12-1.59-4.7-1.5-7.13-2a19.42,19.42,0,0,0-2.29-.15c-.85,0-1.7.08-2.55.08l-.17,0c-.34,0-.69.06-1,.09a13.8,13.8,0,0,0-6.78,2.1c-1.86,1.25-4.08,1.93-5.73,3.54a.13.13,0,0,1-.12.12c-1,2.27-1.88,2.59-4.18,2.11a11.82,11.82,0,0,0-6.56.61c-3.13,1.14-5.5,3.37-7.86,5.54A7.89,7.89,0,0,0,118.66,94c-.32,2.39-.59,2.74-3,3.12-2.65.42-4.1,2.36-5.64,4.35s-1.75,4.39-1.91,6.84a4.29,4.29,0,0,1-2.82,3.85,11.24,11.24,0,0,0-4.69,3l-.06.14-.06.1a1.73,1.73,0,0,1-.17.21.83.83,0,0,1-.15.11s0,0,0,0c-2,2.1-1.7,4.46-.84,6.92.69,2,.56,1.91-1,3.41a11.63,11.63,0,0,0-2.83,5c-.46,1.43-.71,2.9-1.29,4.33a5.76,5.76,0,0,0,1.49,6.49c1.68,1.7,2.36,1.57-.21,3.51-1.35,1-1.64,2.54-2.14,3.9a10.35,10.35,0,0,0,.29,8.55,12.28,12.28,0,0,0,3.32,3.79c.84.72.9,1.43.36,2.1-2.56,3.13-1.75,6.44-.66,9.78a5.27,5.27,0,0,0,2.68,3.18,2.91,2.91,0,0,1,1.7,3.46,12.15,12.15,0,0,0,.35,6.37,11.71,11.71,0,0,0,5.08,5.63c.51.32,1,.6,1.57.9a3.3,3.3,0,0,1,1.79,3.11,12.44,12.44,0,0,0,5,9.36c1.54,1.25,3,2.59,5,3,.45.09.91.39,1.34,0s0-.86-.07-1.3c-.35-1.29-.68-2.58-1-3.88a1.3,1.3,0,0,0-1.68-1.14,4.1,4.1,0,0,1-4.73-2.49,26.59,26.59,0,0,1-1.88-5.89c-1.24-5.64-2.34-11.3-2.1-17.13a6.79,6.79,0,0,1,.12-1,2,2,0,0,1,1.51-1.6,5.1,5.1,0,0,1,3.92.37A3.94,3.94,0,0,1,117,176.1a3.9,3.9,0,0,1,.39,1.28.36.36,0,0,0,0,.09,24.48,24.48,0,0,1,.16,3.53c0,.9,0,1.81,0,2.72,0,.74-.06,1.62.82,1.83s.91-.81,1.24-1.34c.12-.19.12-.45.32-.66A21.45,21.45,0,0,0,162.06,178c0-.09,0-.17,0-.25,1.59-1.45,8.21-6.57,15.86,0,0,.08,0,.15,0,.23a21.45,21.45,0,0,0,41.71,6.93h.14a1,1,0,0,0,.25,0h0c.58.21.52.82.73,1.26a.92.92,0,0,0,1,.6.87.87,0,0,0,.78-.74,10.51,10.51,0,0,0,.23-3.21,11,11,0,0,1,.05-2.07s0,0,0-.05A3.72,3.72,0,0,1,225,177a4.77,4.77,0,0,1,3.37,0c1.42.57,1.89,1.93,2,3.35a18.37,18.37,0,0,1-.4,4.67c-.09.65-.21,1.3-.3,2a6.68,6.68,0,0,1-.4,1.67,74.25,74.25,0,0,1-2.2,9.12c-.06.2-.12.38-.16.57,0,0,0,0,0,0a9.77,9.77,0,0,1-4.09,4.57,3,3,0,0,1-1.74-.28c-1-.48-1.5,0-1.64.91a21.2,21.2,0,0,1-1.55,4.78c-.21.52-.52,1.1,0,1.55a1.44,1.44,0,0,0,1.59,0,7.6,7.6,0,0,0,3.1-2.21c1.06-1.4,2.63-2.18,4-3.24a.53.53,0,0,1,.22-.08.83.83,0,0,1,.21-.06h0l.25-.14a2.9,2.9,0,0,0,.29-.19l.41-.38,0,0a.58.58,0,0,1,.18-.17h0l.07-.09,0,0h0l.13-.1h0a.44.44,0,0,1,.16-.17,24.84,24.84,0,0,0,1.84-3c0-.15.06-.3.1-.45a5.41,5.41,0,0,1,.72-3.36.76.76,0,0,0,0-.11.65.65,0,0,1,.14-.29l0-.06.13-.1.18-.07a1.31,1.31,0,0,1,.28-.09c2.4-.3,3.69-2.08,4.88-3.84a4.32,4.32,0,0,0,.21-4.41c-.05-.11-.13-.22-.19-.33l-.3-1a7.94,7.94,0,0,1-.28-.95,3.5,3.5,0,0,1,0-.56,1.51,1.51,0,0,1,.29-.49,5.41,5.41,0,0,1,.69-.71c.46-.37,1.08-.56,1.52-.9,2.39-1.8,4.25-4.09,3.92-7a4.11,4.11,0,0,1,1.62-4,2.2,2.2,0,0,0,.53-1.43,20.15,20.15,0,0,0-1-9.4,1.79,1.79,0,0,1,.22-2A14.56,14.56,0,0,0,246.71,153.34ZM140.64,197.27A19.28,19.28,0,1,1,160,178,19.36,19.36,0,0,1,140.64,197.27Zm58.72,0A19.28,19.28,0,1,1,218.75,178,19.36,19.36,0,0,1,199.36,197.27Zm21.26-24.45-.09,1.78a21.28,21.28,0,0,0-8.68-13.92,1.29,1.29,0,0,0,.66-.46l.24-.33a1.26,1.26,0,0,0-.25-1.72,25.56,25.56,0,0,0-28.48-2.3,1.24,1.24,0,0,0-.4,1.69l.21.35a1.23,1.23,0,0,0,.78.57,1.3,1.3,0,0,0,1-.15,22.32,22.32,0,0,1,21.47-.24,21.44,21.44,0,0,0-28.92,17.14c-7-5.17-13.32-2.06-16.22,0a21.45,21.45,0,0,0-42.07-2.33l-.07-2.1a36.75,36.75,0,0,1,.84-11.92,73.69,73.69,0,0,0,1.87-11.53c.35-3.49,1.64-6.82,2.71-10.18,1.31-4.09,4.25-6.88,7-9.83a12.41,12.41,0,0,1,3.09-1.81,1.85,1.85,0,0,1,1.51-.07c2.52,1.21,4.92.33,7.17-.6,2.65-1.09,5.26-2,8.16-1.52.42.06,1-.14,1,.66,0,.56.61.31,1,.35,1.94.2,3.85-.38,5.8-.24a8.66,8.66,0,0,1,2.53.43c2.92,1.12,5.94.85,8.9.35a14.07,14.07,0,0,1,5.37-.09,12.82,12.82,0,0,0,2.06.16,10.28,10.28,0,0,1,3.55.41,3.83,3.83,0,0,0,2.61-.26c2.11-.74,4.26-1.47,6.63-.83a24,24,0,0,0,4.72.57,26.4,26.4,0,0,1,6,1.43c.83.26,1.44,1.12,2.33,1.49,1.8.76,3.3,2.15,5.08,2.84,5,1.9,5.87,6.42,7.11,10.68s1.22,8.69,2.07,13a84.76,84.76,0,0,1,1.82,11.83A65.45,65.45,0,0,1,220.62,172.82Z" transform="translate(-24.64 -44.3)"/></svg>