<svg xmlns="http://www.w3.org/2000/svg" viewBox="0 0 30.71 35.25"><defs><style>.cls-1{fill:#0c0d0f;}</style></defs><g id="Capa_2" data-name="Capa 2"><g id="Capa_1-2" data-name="Capa 1"><path class="cls-1" d="M18.87,3s1,9.58.8,10.53c0,0-.22,2.31,3.26,10.66s1.24,2.61,4.14,9.22l1.3,1.89,1.31-10.46c.21-3.77.15-9.94.15-9.94A104.44,104.44,0,0,0,30.7,3.68,31.13,31.13,0,0,1,30.62.12C20-.31,17.56.56,17.56.56,9.73.05.94.05.94.05A21.89,21.89,0,0,0,.22,5.42,25.56,25.56,0,0,1,.29,9.84c-.14,2.25.36,8.79.36,8.79l-.5-.15C.51,24.65,0,34.08,0,34.08H7.11c.37-.43,7.4-17.56,7.4-17.56C17.06,11.3,18.87,3,18.87,3Z"/></g></g></svg>